<?xml version="1.0" encoding="utf-8"?>
<!-- Generator: Adobe Illustrator 24.2.3, SVG Export Plug-In . SVG Version: 6.00 Build 0)  -->
<svg version="1.1" id="Capa_1" xmlns="http://www.w3.org/2000/svg" xmlns:xlink="http://www.w3.org/1999/xlink" x="0px" y="0px"
	 viewBox="0 0 1440 1440" enable-background="new 0 0 1440 1440" xml:space="preserve">
<g>
	<g>
		<g opacity="0.15">
			<linearGradient id="SVGID_1_" gradientUnits="userSpaceOnUse" x1="17" y1="750.4533" x2="1402.4622" y2="750.4533">
				<stop  offset="0" style="stop-color:#FBBA10"/>
				<stop  offset="1" style="stop-color:#F6A019"/>
			</linearGradient>
			<path fill="url(#SVGID_1_)" d="M298.6,202c-118.7-9.4-245.2,85.7-213.3,256.2c15.4,82.3,71.2,160.6,53.8,242.5
				c-14.3,67.6-76.4,114.1-105.3,176.8c-35.6,77-12.7,176.6,52.9,230.4c42.9,35.1,99.7,51,139.6,89.4
				c40.1,38.6,57.9,94.7,91.5,139.1c56.3,74.5,159.8,109.7,249.9,85.1c53-14.5,99.2-46.9,151.1-65c110.3-38.5,230.9-8.8,346.4,8.7
				c51.6,7.9,106.5,12.8,154.2-8.3c85-37.6,117.1-147.1,98.8-238.3c-19-94.9-80.4-185.4-62.2-280.5c12.7-66.4,61.8-118.7,95.9-177
				c42-71.7,61.9-158.3,44.3-239.5s-76-155-155-180.8c-112.1-36.6-244,23.6-348.7-30.6c-42.4-22-86.8-123.4-195.4-136.6
				c-101.5-12.4-157.5,41.1-212.6,64.3C422.4,164,365.5,207.3,298.6,202z"/>
		</g>
		<g opacity="0.15">
			<linearGradient id="SVGID_2_" gradientUnits="userSpaceOnUse" x1="89.2669" y1="135.7489" x2="354.9276" y2="135.7489">
				<stop  offset="0" style="stop-color:#FBBA10"/>
				<stop  offset="1" style="stop-color:#F6A019"/>
			</linearGradient>
			<path fill="url(#SVGID_2_)" d="M150.6,210.2c36.9,0.5,70.9-16.3,103.1-23.7c25.7-5.9,52.2-12.3,73.1-28.3
				c20.9-16.1,34.6-44.7,25.1-69.3c-3.5-9.1-10-17-18.5-21.8c-8.9-5-19.5-6.2-29.7-6.3c-20.7-0.3-41.9,3.8-59.4,14.8
				c-27.5,17.4-42.6,49.9-69.8,67.7c-13.8,9-30.3,13.8-46.7,13.6c-10.5-0.1-22-2-30.6,4.1c-13.4,9.6-8.2,32.6,5.5,41.7
				C116.3,211.8,134.1,211.2,150.6,210.2"/>
		</g>
		<g opacity="0.15">
			<linearGradient id="SVGID_3_" gradientUnits="userSpaceOnUse" x1="1277.0417" y1="879.2795" x2="1411.4978" y2="879.2795">
				<stop  offset="0" style="stop-color:#FBBA10"/>
				<stop  offset="1" style="stop-color:#F6A019"/>
			</linearGradient>
			<path fill="url(#SVGID_3_)" d="M1306,787.4c-8.6,11.4-12.7,25.5-16.6,39.3c-6.7,23.5-13.5,47.5-12.2,72
				c1.3,26.2,14.6,98.5,58.1,114.8c6.9,2.6,14.6-0.1,21.7-2c11.3-3.2,23-8.5,29-18.6c6.8-11.5,4.6-26,2.6-39.3
				c-4-26.5-6-54.2,2.8-79.5c5.1-14.8,13.8-28.4,17-43.8c5-23.9,8-66.9-22.3-82.6c-4-2.1-8.2-4-12.7-3.7
				C1337.6,746.2,1308.8,777.8,1306,787.4"/>
		</g>
	</g>
	<g>
		<defs>
			<rect id="SVGID_79_" x="17" y="579.3" width="1496" height="664.1"/>
		</defs>
		<clipPath id="SVGID_4_">
			<use xlink:href="#SVGID_79_"  overflow="visible"/>
		</clipPath>
		<g clip-path="url(#SVGID_4_)">
			<g>
				<g>
					<g>
						<g>
							<linearGradient id="SVGID_5_" gradientUnits="userSpaceOnUse" x1="986.3912" y1="1025.6166" x2="1267.5669" y2="1025.6166">
								<stop  offset="0" style="stop-color:#FBD734"/>
								<stop  offset="1" style="stop-color:#F07F2D"/>
							</linearGradient>
							<path fill="url(#SVGID_5_)" d="M1267.2,939.3c-2.6,4.5-5.3,8.9-8.2,13.2c-3.6,5.6-7.4,11-11.4,16.3
								c-4.8,6.4-9.8,12.6-15,18.6c-6,6.9-12.3,13.6-18.9,19.9c-7.4,7.2-15,14-23,20.4c-8.9,7.2-18.2,14-27.8,20.3
								c-10.5,6.9-21.5,13.3-32.7,19.1c-12.4,6.4-25.1,12.2-38,17.3c-14.2,5.6-28.7,10.3-43.4,14.4c-16.3,4.5-32.9,8.1-49.5,10.9
								c-4.3,0.7-8.6,1.4-12.9,2c-0.2,0-0.1,0.3,0,0.3c17.1-2.3,34.1-5.5,50.9-9.7c15.3-3.8,30.4-8.3,45.2-13.7
								c13.3-4.8,26.3-10.3,39-16.5c11.7-5.7,23.1-11.9,34.1-18.8c10-6.2,19.7-12.9,29-20.1c8.3-6.4,16.4-13.2,24.1-20.4
								c6.9-6.5,13.6-13.2,20-20.3c5.5-6.1,10.8-12.4,15.9-19c4.3-5.5,8.4-11.2,12.3-17.1c3.1-4.6,6.1-9.4,8.9-14.1
								c0.6-1,1.2-2,1.7-3C1267.7,939.3,1267.3,939.1,1267.2,939.3L1267.2,939.3z"/>
						</g>
					</g>
					
						<linearGradient id="SVGID_6_" gradientUnits="userSpaceOnUse" x1="-109.7345" y1="780.4485" x2="-167.6532" y2="878.1862" gradientTransform="matrix(-0.9956 -9.380000e-02 -9.380000e-02 0.9956 1235.0269 36.9302)">
						<stop  offset="0" style="stop-color:#F8EE7E"/>
						<stop  offset="1" style="stop-color:#EE751C"/>
					</linearGradient>
					<path fill="url(#SVGID_6_)" d="M1348.5,868.9c0,0-23.1,88.4-84.3,78.4c0,0,7.1-34.9,28.1-53c21-18.1,38.6-20.7,47.6-36.5
						C1349.1,842.1,1352.1,853.9,1348.5,868.9z"/>
					
						<linearGradient id="SVGID_7_" gradientUnits="userSpaceOnUse" x1="-79.8699" y1="798.1457" x2="-137.7889" y2="895.8839" gradientTransform="matrix(-0.9956 -9.380000e-02 -9.380000e-02 0.9956 1235.0269 36.9302)">
						<stop  offset="0" style="stop-color:#F8EE7E"/>
						<stop  offset="1" style="stop-color:#EE751C"/>
					</linearGradient>
					<path fill="url(#SVGID_7_)" d="M1264.3,947.3c0,0,25.6-38.4,11.5-77.5c-14.1-39.1-5.1-50.6-11.6-51.1
						C1249.4,817.6,1217,923.7,1264.3,947.3z"/>
					
						<linearGradient id="SVGID_8_" gradientUnits="userSpaceOnUse" x1="-104.0273" y1="783.8303" x2="-161.9464" y2="881.5686" gradientTransform="matrix(-0.9956 -9.380000e-02 -9.380000e-02 0.9956 1235.0269 36.9302)">
						<stop  offset="0" style="stop-color:#F8EE7E"/>
						<stop  offset="1" style="stop-color:#EE751C"/>
					</linearGradient>
					<path fill="url(#SVGID_8_)" d="M1306.3,899.9c6.7-14.9,14.7-61.5,4.1-69.3c-7.8-5.8-30.7,20.4-44.3,50.3
						c-9.7,21.2-4.7,45,7.5,47.3C1285.8,930.4,1301.8,909.7,1306.3,899.9z"/>
					<linearGradient id="SVGID_9_" gradientUnits="userSpaceOnUse" x1="1278.6882" y1="854.146" x2="1290.1184" y2="854.146">
						<stop  offset="0" style="stop-color:#F07F2D"/>
						<stop  offset="1" style="stop-color:#F8AC34"/>
					</linearGradient>
					<path fill="url(#SVGID_9_)" d="M1280.3,850.1c-2.2,2.3-2.2,5.9,0.1,8.1c2.3,2.2,5.9,2.2,8.1-0.1c2.2-2.3,2.2-5.9-0.1-8.1
						C1286.2,847.9,1282.5,847.9,1280.3,850.1z"/>
					<linearGradient id="SVGID_10_" gradientUnits="userSpaceOnUse" x1="1313.7126" y1="857.6182" x2="1325.1433" y2="857.6182">
						<stop  offset="0" style="stop-color:#F07F2D"/>
						<stop  offset="1" style="stop-color:#F8AC34"/>
					</linearGradient>
					<path fill="url(#SVGID_10_)" d="M1315.4,853.6c-2.2,2.2-2.2,5.9,0.1,8.1c2.3,2.2,5.9,2.2,8.1-0.1c2.2-2.3,2.2-5.9-0.1-8.1
						C1321.2,851.3,1317.6,851.4,1315.4,853.6z"/>
					<linearGradient id="SVGID_11_" gradientUnits="userSpaceOnUse" x1="1286.3301" y1="833.0867" x2="1297.7604" y2="833.0867">
						<stop  offset="0" style="stop-color:#F07F2D"/>
						<stop  offset="1" style="stop-color:#F8AC34"/>
					</linearGradient>
					<path fill="url(#SVGID_11_)" d="M1288,829.1c-2.2,2.2-2.2,5.9,0.1,8.1c2.3,2.2,5.9,2.2,8.1-0.1c2.2-2.3,2.2-5.9-0.1-8.1
						C1293.8,826.8,1290.2,826.8,1288,829.1z"/>
					<linearGradient id="SVGID_12_" gradientUnits="userSpaceOnUse" x1="1308.1367" y1="841.3422" x2="1314.6748" y2="841.3422">
						<stop  offset="0" style="stop-color:#F07F2D"/>
						<stop  offset="1" style="stop-color:#F8AC34"/>
					</linearGradient>
					<path fill="url(#SVGID_12_)" d="M1309.1,839c-1.3,1.3-1.2,3.4,0,4.6c1.3,1.3,3.4,1.2,4.6,0c1.3-1.3,1.2-3.4,0-4.6
						C1312.4,837.7,1310.3,837.8,1309.1,839z"/>
					<linearGradient id="SVGID_13_" gradientUnits="userSpaceOnUse" x1="1328.4773" y1="853.7534" x2="1335.0156" y2="853.7534">
						<stop  offset="0" style="stop-color:#F07F2D"/>
						<stop  offset="1" style="stop-color:#F8AC34"/>
					</linearGradient>
					<path fill="url(#SVGID_13_)" d="M1329.4,851.5c-1.3,1.3-1.2,3.4,0,4.6c1.3,1.3,3.4,1.2,4.6,0c1.3-1.3,1.2-3.4,0-4.6
						C1332.8,850.2,1330.7,850.2,1329.4,851.5z"/>
					<linearGradient id="SVGID_14_" gradientUnits="userSpaceOnUse" x1="1273.3323" y1="840.6318" x2="1279.8705" y2="840.6318">
						<stop  offset="0" style="stop-color:#F07F2D"/>
						<stop  offset="1" style="stop-color:#F8AC34"/>
					</linearGradient>
					<path fill="url(#SVGID_14_)" d="M1274.3,838.3c-1.3,1.3-1.3,3.4,0,4.6c1.3,1.3,3.4,1.2,4.6,0c1.3-1.3,1.2-3.4,0-4.6
						C1277.6,837,1275.5,837.1,1274.3,838.3z"/>
				</g>
			</g>
			<g>
				
					<linearGradient id="SVGID_15_" gradientUnits="userSpaceOnUse" x1="1081.7341" y1="885.1595" x2="1259.6387" y2="607.9596" gradientTransform="matrix(0.9904 0.1379 -0.1379 0.9904 107.7208 -87.7043)">
					<stop  offset="0" style="stop-color:#EE751C"/>
					<stop  offset="1" style="stop-color:#FEE308"/>
				</linearGradient>
				<path fill="url(#SVGID_15_)" d="M897.5,1189.1c0,0,97.9-371.9,254.2-469.7c32.9-20.6,56.3-29.1,71.3-28.2
					c56.5,3.5-8.4,134.9-118,266.6c-112.4,135.1-102.9,145.6-165.4,242.6"/>
				
					<linearGradient id="SVGID_16_" gradientUnits="userSpaceOnUse" x1="973.5863" y1="1145.0955" x2="1163.9021" y2="686.8883" gradientTransform="matrix(0.9904 0.1379 -0.1379 0.9904 107.7208 -87.7043)">
					<stop  offset="0" style="stop-color:#EE751C"/>
					<stop  offset="1" style="stop-color:#FEE308"/>
				</linearGradient>
				<path fill="url(#SVGID_16_)" d="M1223.9,701c-27.6,28.6-53.5,59.1-78,90.9c-2.1-20,0.5-39.8,1.3-59.9c0.1-1.3-1.9-2.1-2.4-0.7
					c-6.2,18.4-7.5,44.9-1.9,64.3c-17,22.3-33.3,45.2-49,68.6c-0.6-8.6-2.1-17.2-3-25.8c-1.6-15.7,0.2-30.8,1.3-46.5
					c0.1-1.3-2-2.1-2.4-0.7c-7.7,25.5-3.2,51.4,1.5,77c-17.8,26.7-34.8,54-51.1,81.6c-0.7-7.2-2-14.4-2.7-21.6
					c-1.5-15.7,0.2-30.8,1.3-46.5c0.1-1.3-2-2.1-2.4-0.7c-7.4,24.5-3.6,49.3,0.9,73.8c-13.8,23.5-27,47.2-39.7,70.9
					c-0.7-6.9-1.9-13.9-2.6-20.8c-1.6-15.7,0.2-30.8,1.3-46.5c0.1-1.3-2-2.1-2.4-0.7c-7.4,24.3-3.6,49,0.8,73.4
					c-0.4,0.8-0.8,1.6-1.3,2.3c-20.8,39-40.6,78.8-57.9,119.5c-2.9,6.8-19.7,36.5-14.7,44.3c1,1.6,3.3-0.2,2.3-1.8
					c-1.2-1.9,4.9-14.9,5.9-17.4c4.7-12,9.9-23.7,15.1-35.5c16.3-36.4,34.3-72,53.2-107.1c0.4-0.3,0.8-0.6,0.7-1.3c0,0,0-0.1,0-0.1
					c2-3.6,3.9-7.3,5.9-10.9c6.4-11.8,13.1-23.4,19.7-34.9c3.2,0.7,6.8,0.3,9.9,0c7-0.8,15.1-2.6,20.9-6.7c1.1-0.8,0.3-2.4-0.9-2.3
					c-9.4,0.8-18.4,4.7-27.9,5.3c11.5-19.8,23.3-39.2,35.5-58.4c2.8,0.3,5.7,0.1,8.3-0.3c7-0.8,15.1-2.6,20.9-6.7
					c1.1-0.8,0.3-2.4-0.9-2.3c-8.7,0.8-17,4.1-25.7,5.1c2.6-4,5.1-8.1,7.7-12.1c22.5,5.5,54.9-13.1,67.8-29.6
					c0.9-1.1-0.6-2.6-1.8-1.8c-17.2,12.8-40.9,30.1-64.2,28.4c14.3-22,29.1-43.6,44.2-65c22.5,4.9,54.2-13.5,67-29.7
					c0.9-1.1-0.6-2.6-1.8-1.8c-17,12.6-40.1,29.6-63.1,28.5c33.4-46.9,68.8-92.5,106.1-137C1227,701.3,1225,699.9,1223.9,701z"/>
			</g>
			<g>
				
					<linearGradient id="SVGID_17_" gradientUnits="userSpaceOnUse" x1="1117.9944" y1="1093.5914" x2="1301.4108" y2="810.8818" gradientTransform="matrix(0.9682 0.2501 -0.2501 0.9682 197.8193 -115.3089)">
					<stop  offset="0" style="stop-color:#E9501E"/>
					<stop  offset="1" style="stop-color:#FEE308"/>
				</linearGradient>
				<path fill="url(#SVGID_17_)" d="M954.9,1171.8c0,0,102-294.9,201.3-271.2c99.3,23.7-99.8,194-141.7,255.8
					c0,0,166.7-175.7,203.1-112.6c36.4,63.1-124.7,96.9-171.5,134.4c0,0,258.6-96.2,241,2.3c-2.5,14.2-21.7,29.4-73.8,26.2
					c-52-3.1-120.2-17.6-174.6,17.6"/>
				<g>
					<g>
						<linearGradient id="SVGID_18_" gradientUnits="userSpaceOnUse" x1="940.8236" y1="1091.3687" x2="1144.1912" y2="1091.3687">
							<stop  offset="0" style="stop-color:#F07F2D"/>
							<stop  offset="1" style="stop-color:#FBD734"/>
						</linearGradient>
						<path fill="url(#SVGID_18_)" d="M1143.7,933.1c-19,17.9-35.8,38-51.7,58.7c-17.8,23.2-34.3,47.4-50,72
							c-15.4,24.2-30.1,48.9-44.2,73.9c-12,21.3-23.5,42.8-34.5,64.5c-7.3,14.5-14.6,29-20.9,43.9c-0.5,1.1-0.9,2.2-1.4,3.3
							c-0.1,0.2,0.2,0.3,0.3,0.1c5.8-13.9,12.6-27.4,19.3-40.9c10.5-21.1,21.6-41.8,33-62.4c13.7-24.7,28-49.1,43-73
							c15.5-24.8,31.8-49.1,49.2-72.5c15.9-21.4,32.8-42.3,51.7-61.2c2.1-2.1,4.2-4.1,6.3-6.1
							C1144.1,933.2,1143.9,932.9,1143.7,933.1L1143.7,933.1z"/>
					</g>
				</g>
				<g>
					<g>
						<linearGradient id="SVGID_19_" gradientUnits="userSpaceOnUse" x1="941.1448" y1="1153.2804" x2="1197.7778" y2="1153.2804">
							<stop  offset="0" style="stop-color:#F07F2D"/>
							<stop  offset="1" style="stop-color:#FBD734"/>
						</linearGradient>
						<path fill="url(#SVGID_19_)" d="M1197.2,1056.9c-21.3,10.3-41.8,22.1-61.8,34.8c-20.8,13.2-41.1,27.2-61,41.9
							c-18.9,14-37.4,28.5-55.5,43.5c-15.5,12.8-30.7,26-45.4,39.7c-10.4,9.6-20.6,19.4-30,30c-0.8,0.9-1.6,1.9-2.4,2.8
							c-0.1,0.2,0.1,0.4,0.2,0.2c8.6-10,18.3-19.2,27.9-28.2c14.2-13.3,28.8-26.1,43.7-38.6c17.9-15,36.2-29.5,54.8-43.5
							c19.7-14.8,39.9-29,60.6-42.4c19.9-12.9,40.4-25.1,61.6-35.9c2.5-1.3,5-2.5,7.5-3.7
							C1197.6,1057.1,1197.4,1056.8,1197.2,1056.9L1197.2,1056.9z"/>
					</g>
				</g>
				<g>
					<g>
						<linearGradient id="SVGID_20_" gradientUnits="userSpaceOnUse" x1="941.1452" y1="1208.0057" x2="1252.2233" y2="1208.0057">
							<stop  offset="0" style="stop-color:#F07F2D"/>
							<stop  offset="1" style="stop-color:#FBD734"/>
						</linearGradient>
						<path fill="url(#SVGID_20_)" d="M1252.1,1168.6c-16.2-1.9-32.6-2.5-49-2.2c-19.1,0.4-38.1,2.1-57,4.9
							c-21.4,3.2-42.6,7.7-63.5,13.6c-22.5,6.3-44.6,14.2-66.1,23.6c-23.2,10.1-45.7,22-67.1,35.6c-2.8,1.8-5.5,3.6-8.3,5.4
							c-0.2,0.1,0,0.4,0.2,0.3c21.4-13.8,43.6-26.3,66.8-36.9c21.7-9.9,44-18.3,66.9-25.2c20.8-6.2,42.1-11.1,63.5-14.6
							c19.3-3.2,38.8-5.2,58.3-5.9c16.5-0.6,33.1-0.3,49.6,1.3c1.8,0.2,3.7,0.4,5.5,0.6C1252.3,1169,1252.3,1168.6,1252.1,1168.6
							L1252.1,1168.6z"/>
					</g>
				</g>
			</g>
		</g>
		<g clip-path="url(#SVGID_4_)">
			<g>
				<linearGradient id="SVGID_21_" gradientUnits="userSpaceOnUse" x1="332.7959" y1="909.0187" x2="163.1739" y2="722.8482">
					<stop  offset="0" style="stop-color:#EE751C"/>
					<stop  offset="1" style="stop-color:#FEE308"/>
				</linearGradient>
				<path fill="url(#SVGID_21_)" d="M526.3,1202.5c0,0-89.5-374.1-243.5-475.4c-32.4-21.3-55.6-30.4-70.7-29.8
					c-56.5,2.2,5.4,135.1,111.9,269.2c109.3,137.6,99.6,147.9,159.9,246.3"/>
				
					<linearGradient id="SVGID_22_" gradientUnits="userSpaceOnUse" x1="459.1475" y1="1197.3486" x2="649.4583" y2="739.1536" gradientTransform="matrix(-0.9933 0.1154 0.1154 0.9933 827.9049 -48.6155)">
					<stop  offset="0" style="stop-color:#EE751C"/>
					<stop  offset="1" style="stop-color:#FEE308"/>
				</linearGradient>
				<path fill="url(#SVGID_22_)" d="M211.1,707.2c26.9,29.2,52.1,60.3,75.9,92.7c2.5-20,0.4-39.8,0-59.9c0-1.3,2-2.1,2.4-0.6
					c5.7,18.6,6.5,45,0.4,64.4c16.5,22.7,32.3,46,47.5,69.7c0.8-8.6,2.5-17.1,3.6-25.7c1.9-15.7,0.5-30.8-0.2-46.5
					c-0.1-1.3,2-2.1,2.4-0.6c7.2,25.7,2.1,51.5-3.2,76.9c17.2,27.1,33.6,54.8,49.2,82.8c0.9-7.2,2.3-14.4,3.2-21.6
					c1.9-15.7,0.5-30.8-0.2-46.5c-0.1-1.3,2-2.1,2.4-0.6c6.9,24.7,2.4,49.4-2.6,73.8c13.2,23.8,25.9,47.8,38.1,71.8
					c0.9-6.9,2.2-13.8,3.1-20.7c1.9-15.7,0.5-30.8-0.2-46.5c-0.1-1.3,2-2.1,2.4-0.6c6.8,24.5,2.5,49-2.5,73.4
					c0.4,0.8,0.8,1.6,1.2,2.4c19.9,39.5,38.8,79.7,55.1,120.8c2.7,6.9,18.9,36.9,13.7,44.7c-1.1,1.6-3.3-0.3-2.3-1.8
					c1.2-1.9-4.6-15-5.5-17.6c-4.4-12.1-9.3-24-14.3-35.8c-15.4-36.7-32.7-72.7-50.8-108.2c-0.4-0.3-0.7-0.7-0.7-1.3
					c0,0,0-0.1,0-0.1c-1.9-3.7-3.7-7.4-5.6-11.1c-6.2-11.9-12.5-23.7-18.9-35.4c-3.2,0.6-6.8,0.2-9.9-0.3c-6.9-1-15.1-2.9-20.8-7.1
					c-1.1-0.8-0.2-2.4,1-2.2c9.4,1,18.3,5.2,27.8,6c-11-20-22.4-39.7-34.2-59.2c-2.8,0.2-5.7-0.1-8.3-0.4c-6.9-1-15.1-2.9-20.8-7.1
					c-1.1-0.8-0.2-2.4,1-2.2c8.6,1,16.9,4.5,25.6,5.7c-2.5-4.1-4.9-8.2-7.4-12.2c-22.6,5-54.6-14.3-67.1-31.1
					c-0.9-1.1,0.7-2.6,1.8-1.7c16.9,13.2,40.2,31,63.6,29.9c-13.8-22.3-28.1-44.3-42.7-66c-22.6,4.4-53.9-14.7-66.3-31.3
					c-0.9-1.1,0.7-2.6,1.8-1.7c16.7,12.9,39.5,30.5,62.4,29.9c-32.3-47.6-66.7-94-103-139.3C208.1,707.4,210,706,211.1,707.2z"/>
			</g>
			<g>
				<linearGradient id="SVGID_23_" gradientUnits="userSpaceOnUse" x1="435.352" y1="1170.8745" x2="163.3356" y2="988.8407">
					<stop  offset="0" style="stop-color:#E9501E"/>
					<stop  offset="1" style="stop-color:#FEE308"/>
				</linearGradient>
				<path fill="url(#SVGID_23_)" d="M469.8,1196.9c0,0-60.8-306-162.4-296.2c-101.6,9.9,72.4,205.8,105.4,272.8
					c0,0-141.1-196.9-185.8-139.3c-44.7,57.5,110.3,113.1,151.5,156.6c0,0-243-130.7-239.1-30.6c0.6,14.4,17.5,32.1,69.5,36.1
					c51.9,4,121.4-1,170.6,41.3"/>
				<g>
					<g>
						<linearGradient id="SVGID_24_" gradientUnits="userSpaceOnUse" x1="314.86" y1="1105.1859" x2="473.1498" y2="1105.1859">
							<stop  offset="0" style="stop-color:#FBD734"/>
							<stop  offset="1" style="stop-color:#F07F2D"/>
						</linearGradient>
						<path fill="url(#SVGID_24_)" d="M315.1,934.8c16.4,20.6,30.4,43,43.3,65.8c14.3,25.3,27.2,51.3,39.3,77.7
							c12,26.2,23.2,52.7,33.7,79.5c8.9,22.5,17.3,45.2,25.2,68.1c5.3,15.3,10.4,30.6,14.8,46.2c0.3,1.2,0.7,2.4,1,3.6
							c0.1,0.2,0.4,0.1,0.3-0.1c-3.8-14.6-8.5-28.9-13.3-43.2c-7.6-22.4-15.7-44.6-24.2-66.6c-10.2-26.3-21-52.4-32.6-78.1
							c-12-26.7-24.8-53.1-39-78.8c-12.9-23.4-26.8-46.3-42.9-67.5c-1.7-2.3-3.5-4.6-5.3-6.8C315.2,934.4,315,934.6,315.1,934.8
							L315.1,934.8z"/>
					</g>
				</g>
				<g>
					<g>
						<linearGradient id="SVGID_25_" gradientUnits="userSpaceOnUse" x1="245.1834" y1="1162.8516" x2="473.1962" y2="1162.8516">
							<stop  offset="0" style="stop-color:#FBD734"/>
							<stop  offset="1" style="stop-color:#F07F2D"/>
						</linearGradient>
						<path fill="url(#SVGID_25_)" d="M245.3,1050.2c9.5,6.4,18.8,13.1,27.9,20.1c9.7,7.4,19.1,15,28.4,22.9
							c9.4,7.9,18.6,16.1,27.7,24.4c9.1,8.3,18,16.8,26.8,25.4c8.6,8.4,17.2,17,25.6,25.7c8,8.2,15.8,16.6,23.6,25
							c7.2,7.8,14.2,15.7,21.2,23.7c6.2,7.1,12.3,14.3,18.2,21.6c5.1,6.2,10.1,12.5,15,18.9c3.7,4.9,7.4,9.9,10.9,15
							c0.7,1,1.4,2,2,3c0.1,0.2,0.4,0,0.3-0.2c-3.1-4.8-6.4-9.5-9.8-14.1c-4.5-6-9.1-12-13.8-17.8c-5.7-7.1-11.6-14.1-17.5-21
							c-6.7-7.9-13.6-15.7-20.6-23.4c-7.6-8.4-15.3-16.7-23.1-24.9c-8.3-8.7-16.6-17.2-25.2-25.7c-8.8-8.7-17.7-17.3-26.8-25.7
							c-9.1-8.4-18.3-16.7-27.7-24.8c-9.2-7.9-18.6-15.7-28.2-23.2c-9.1-7.1-18.4-14-27.9-20.6c-2.3-1.6-4.5-3.1-6.8-4.6
							C245.3,1049.7,245.1,1050,245.3,1050.2L245.3,1050.2z"/>
					</g>
				</g>
				<g>
					<g>
						<linearGradient id="SVGID_26_" gradientUnits="userSpaceOnUse" x1="175.6837" y1="1214.464" x2="472.8169" y2="1214.464">
							<stop  offset="0" style="stop-color:#FBD734"/>
							<stop  offset="1" style="stop-color:#F07F2D"/>
						</linearGradient>
						<path fill="url(#SVGID_26_)" d="M175.9,1153.4c16.3,0.4,32.5,2,48.6,4.6c18.9,3,37.6,7.3,56,12.7c20.7,6,41,13.4,60.8,22
							c21.5,9.4,42.4,20.3,62.5,32.5c21.6,13.2,42.2,28.1,61.6,44.3c2.5,2.1,4.9,4.1,7.3,6.2c0.2,0.1,0.4-0.1,0.2-0.2
							c-19-16.9-39.6-32.2-61.1-45.9c-20.1-12.8-41.2-24.2-62.9-34.1c-19.8-9-40.1-16.8-60.9-23.2c-18.7-5.8-37.8-10.4-57.1-13.8
							c-16.4-2.9-33-4.8-49.6-5.4c-1.8-0.1-3.6-0.1-5.4-0.1C175.6,1153.1,175.6,1153.4,175.9,1153.4L175.9,1153.4z"/>
					</g>
				</g>
			</g>
			<g>
				<g>
					<g>
						<g>
							<linearGradient id="SVGID_27_" gradientUnits="userSpaceOnUse" x1="248.2599" y1="1057.2209" x2="492.3815" y2="1057.2209">
								<stop  offset="0" style="stop-color:#FBD734"/>
								<stop  offset="1" style="stop-color:#F07F2D"/>
							</linearGradient>
							<path fill="url(#SVGID_27_)" d="M248.6,950.8c0.9,2,1.7,4.2,2.6,6.2c1.8,4.3,3.7,8.5,5.8,12.7c2.9,6,6.1,12,9.4,17.8
								c4.3,7.5,8.9,14.8,13.7,21.9c5.7,8.5,11.8,16.7,18.3,24.6c7.4,9.2,15.3,18,23.6,26.4c9.3,9.5,19.1,18.4,29.4,26.9
								c11.3,9.3,23.2,18.1,35.5,26.1c13.7,9,27.9,17.1,42.4,24.4c16.1,8.1,32.7,15.2,49.7,21.4c4.4,1.6,8.8,3.1,13.3,4.6
								c0.2,0.1,0.3-0.2,0.1-0.3c-17.6-6.1-35-12.9-51.9-20.8c-15-7.1-29.7-15-43.8-23.7c-12.9-8-25.4-16.7-37.4-26.1
								c-10.6-8.4-20.8-17.3-30.6-26.7c-8.7-8.5-17-17.3-24.9-26.6c-6.9-8.1-13.4-16.5-19.6-25.2c-5.2-7.3-10.1-14.8-14.6-22.5
								c-3.7-6.1-7.1-12.4-10.4-18.8c-2.3-4.6-4.5-9.2-6.6-13.9c-1.1-2.6-2.2-5.2-3.3-7.8c-0.1-0.3-0.2-0.6-0.4-0.9
								C248.8,950.4,248.5,950.6,248.6,950.8L248.6,950.8z"/>
						</g>
					</g>
					
						<linearGradient id="SVGID_28_" gradientUnits="userSpaceOnUse" x1="211.0006" y1="942.7901" x2="168.5944" y2="847.1174" gradientTransform="matrix(0.9933 -0.1154 0.1154 0.9933 -80.2266 56.8219)">
						<stop  offset="0" style="stop-color:#EE751C"/>
						<stop  offset="1" style="stop-color:#F8EE7E"/>
					</linearGradient>
					<path fill="url(#SVGID_28_)" d="M166.1,882.1c0,0,25,87.8,85.9,76.5c0,0-7.9-34.7-29.3-52.4c-21.4-17.6-39-19.9-48.4-35.4
						C164.9,855.3,162.1,867.2,166.1,882.1z"/>
					
						<linearGradient id="SVGID_29_" gradientUnits="userSpaceOnUse" x1="257.1577" y1="922.3313" x2="214.7517" y2="826.6592" gradientTransform="matrix(0.9933 -0.1154 0.1154 0.9933 -80.2266 56.8219)">
						<stop  offset="0" style="stop-color:#EE751C"/>
						<stop  offset="1" style="stop-color:#F8EE7E"/>
					</linearGradient>
					<path fill="url(#SVGID_29_)" d="M252,958.6c0,0-26.4-37.8-13.2-77.2c13.2-39.4,4-50.7,10.5-51.3
						C264.1,828.6,298.7,934,252,958.6z"/>
					
						<linearGradient id="SVGID_30_" gradientUnits="userSpaceOnUse" x1="234.9416" y1="932.1789" x2="192.5354" y2="836.5065" gradientTransform="matrix(0.9933 -0.1154 0.1154 0.9933 -80.2266 56.8219)">
						<stop  offset="0" style="stop-color:#EE751C"/>
						<stop  offset="1" style="stop-color:#F8EE7E"/>
					</linearGradient>
					<path fill="url(#SVGID_30_)" d="M209,912.1c-7.1-14.8-16-61.1-5.6-69.2c7.7-6,31.1,19.7,45.4,49.3c10.1,20.9,5.7,44.9-6.5,47.5
						C230.1,942.2,213.6,921.8,209,912.1z"/>
					<linearGradient id="SVGID_31_" gradientUnits="userSpaceOnUse" x1="224.1423" y1="865.9014" x2="235.572" y2="865.9014">
						<stop  offset="0" style="stop-color:#F07F2D"/>
						<stop  offset="1" style="stop-color:#F8AC34"/>
					</linearGradient>
					<path fill="url(#SVGID_31_)" d="M233.8,861.8c2.3,2.2,2.3,5.8,0.1,8.1c-2.2,2.3-5.8,2.3-8.1,0.1c-2.3-2.2-2.3-5.8-0.1-8.1
						C228,859.7,231.6,859.6,233.8,861.8z"/>
					<linearGradient id="SVGID_32_" gradientUnits="userSpaceOnUse" x1="189.2011" y1="870.1342" x2="200.6318" y2="870.1342">
						<stop  offset="0" style="stop-color:#F07F2D"/>
						<stop  offset="1" style="stop-color:#F8AC34"/>
					</linearGradient>
					<path fill="url(#SVGID_32_)" d="M198.9,866c2.3,2.2,2.3,5.8,0.1,8.1c-2.2,2.3-5.8,2.3-8.1,0.1c-2.3-2.2-2.3-5.8-0.1-8.1
						C193,863.9,196.6,863.8,198.9,866z"/>
					<linearGradient id="SVGID_33_" gradientUnits="userSpaceOnUse" x1="216.0442" y1="845.0131" x2="227.4745" y2="845.0131">
						<stop  offset="0" style="stop-color:#F07F2D"/>
						<stop  offset="1" style="stop-color:#F8AC34"/>
					</linearGradient>
					<path fill="url(#SVGID_33_)" d="M225.7,840.9c2.3,2.2,2.3,5.8,0.1,8.1c-2.2,2.3-5.8,2.3-8.1,0.1c-2.3-2.2-2.3-5.8-0.1-8.1
						C219.9,838.8,223.5,838.7,225.7,840.9z"/>
					<linearGradient id="SVGID_34_" gradientUnits="userSpaceOnUse" x1="188.7444" y1="858.7181" x2="195.2819" y2="858.7181">
						<stop  offset="0" style="stop-color:#F07F2D"/>
						<stop  offset="1" style="stop-color:#F8AC34"/>
					</linearGradient>
					<path fill="url(#SVGID_34_)" d="M194.3,856.4c1.3,1.3,1.3,3.3,0.1,4.6c-1.3,1.3-3.3,1.3-4.6,0.1c-1.3-1.3-1.3-3.3-0.1-4.6
						C190.9,855.1,193,855.1,194.3,856.4z"/>
					<linearGradient id="SVGID_35_" gradientUnits="userSpaceOnUse" x1="234.0941" y1="852.2211" x2="240.6326" y2="852.2211">
						<stop  offset="0" style="stop-color:#F07F2D"/>
						<stop  offset="1" style="stop-color:#F8AC34"/>
					</linearGradient>
					<path fill="url(#SVGID_35_)" d="M239.6,849.9c1.3,1.3,1.3,3.3,0.1,4.6c-1.3,1.3-3.3,1.3-4.6,0.1c-1.3-1.3-1.3-3.3-0.1-4.6
						C236.3,848.6,238.3,848.6,239.6,849.9z"/>
				</g>
			</g>
		</g>
	</g>
	<linearGradient id="SVGID_36_" gradientUnits="userSpaceOnUse" x1="711.4364" y1="606.9054" x2="711.4364" y2="1205.8148">
		<stop  offset="0" style="stop-color:#D64340"/>
		<stop  offset="1" style="stop-color:#EF793F"/>
	</linearGradient>
	<polygon fill="url(#SVGID_36_)" points="1031.4,1249.5 391.5,1249.5 283.9,617.5 1138.9,617.5 	"/>
	<linearGradient id="SVGID_37_" gradientUnits="userSpaceOnUse" x1="711.4514" y1="1214.3784" x2="711.4514" y2="739.9844">
		<stop  offset="0" style="stop-color:#FBBA10"/>
		<stop  offset="1" style="stop-color:#F6A019"/>
	</linearGradient>
	<path fill="url(#SVGID_37_)" d="M859.1,910.3c0,3.4-0.1,6.9-0.3,10.3l-16.1,289.6H580.2l-16-289.6c-6-85.4,61.7-157.9,147.3-157.9
		C793.5,762.8,859.1,829.5,859.1,910.3z"/>
	<linearGradient id="SVGID_38_" gradientUnits="userSpaceOnUse" x1="711.4512" y1="1214.0708" x2="711.4512" y2="774.9045">
		<stop  offset="0" style="stop-color:#FBBA10"/>
		<stop  offset="1" style="stop-color:#F6A019"/>
	</linearGradient>
	<path fill="url(#SVGID_38_)" d="M848.1,932.6c0,3.1-0.1,6.4-0.3,9.6L833,1210.2h-243l-14.8-268.1c-5.5-79,57.1-146.1,136.3-146.1
		C787.5,796,848.1,857.7,848.1,932.6z"/>
	<g>
		<linearGradient id="SVGID_39_" gradientUnits="userSpaceOnUse" x1="303.2231" y1="565.5775" x2="303.2231" y2="687.5865">
			<stop  offset="0" style="stop-color:#EA5642"/>
			<stop  offset="1" style="stop-color:#EE6F40"/>
		</linearGradient>
		<path fill="url(#SVGID_39_)" d="M307.9,688.3L307.9,688.3c-37.3,0-68.8-19.4-70.2-43.4l-4.9-79.8h137.3l3.5,79.8
			C374.7,668.9,345.2,688.3,307.9,688.3z"/>
		<linearGradient id="SVGID_40_" gradientUnits="userSpaceOnUse" x1="439.8605" y1="695.8791" x2="439.8605" y2="522.4554">
			<stop  offset="0" style="stop-color:#F07F2D"/>
			<stop  offset="1" style="stop-color:#F8AC34"/>
		</linearGradient>
		<path fill="url(#SVGID_40_)" d="M443.1,688.3L443.1,688.3c-37.3,0-68.4-19.4-69.5-43.4l-3.5-79.8h137.3l2.1,79.8
			C510.2,668.9,480.4,688.3,443.1,688.3z"/>
		<linearGradient id="SVGID_41_" gradientUnits="userSpaceOnUse" x1="576.5019" y1="565.5775" x2="576.5019" y2="687.5865">
			<stop  offset="0" style="stop-color:#EA5642"/>
			<stop  offset="1" style="stop-color:#EE6F40"/>
		</linearGradient>
		<path fill="url(#SVGID_41_)" d="M578.3,688.3L578.3,688.3c-37.3,0-68.1-19.4-68.7-43.4l-2.1-79.8h137.3l0.7,79.8
			C645.7,668.9,615.6,688.3,578.3,688.3z"/>
		<linearGradient id="SVGID_42_" gradientUnits="userSpaceOnUse" x1="713.495" y1="695.8791" x2="713.495" y2="522.4554">
			<stop  offset="0" style="stop-color:#F07F2D"/>
			<stop  offset="1" style="stop-color:#F8AC34"/>
		</linearGradient>
		<path fill="url(#SVGID_42_)" d="M713.5,688.3L713.5,688.3c-37.3,0-67.8-19.4-68-43.4l-0.7-79.8h137.3l-0.7,79.8
			C781.3,668.9,750.8,688.3,713.5,688.3z"/>
		<linearGradient id="SVGID_43_" gradientUnits="userSpaceOnUse" x1="850.4872" y1="565.5775" x2="850.4872" y2="687.5865">
			<stop  offset="0" style="stop-color:#EA5642"/>
			<stop  offset="1" style="stop-color:#EE6F40"/>
		</linearGradient>
		<path fill="url(#SVGID_43_)" d="M848.7,688.3L848.7,688.3c-37.3,0-67.4-19.4-67.2-43.4l0.7-79.8h137.3l-2.1,79.8
			C916.8,668.9,886,688.3,848.7,688.3z"/>
		<linearGradient id="SVGID_44_" gradientUnits="userSpaceOnUse" x1="987.1288" y1="695.8791" x2="987.1288" y2="522.4554">
			<stop  offset="0" style="stop-color:#F07F2D"/>
			<stop  offset="1" style="stop-color:#F8AC34"/>
		</linearGradient>
		<path fill="url(#SVGID_44_)" d="M983.9,688.3L983.9,688.3c-37.3,0-67.1-19.4-66.5-43.4l2.1-79.8h137.3l-3.5,79.8
			C1052.3,668.9,1021.2,688.3,983.9,688.3z"/>
		<linearGradient id="SVGID_45_" gradientUnits="userSpaceOnUse" x1="1123.766" y1="565.5775" x2="1123.766" y2="687.5865">
			<stop  offset="0" style="stop-color:#EA5642"/>
			<stop  offset="1" style="stop-color:#EE6F40"/>
		</linearGradient>
		<path fill="url(#SVGID_45_)" d="M1119.1,688.3L1119.1,688.3c-37.3,0-66.8-19.4-65.7-43.4l3.5-79.8h137.3l-4.9,79.8
			C1187.9,668.9,1156.4,688.3,1119.1,688.3z"/>
	</g>
	<g>
		<linearGradient id="SVGID_46_" gradientUnits="userSpaceOnUse" x1="332.8616" y1="369.0279" x2="332.8616" y2="564.0519">
			<stop  offset="0" style="stop-color:#EA5642"/>
			<stop  offset="1" style="stop-color:#EE6F40"/>
		</linearGradient>
		<path fill="url(#SVGID_46_)" d="M432.9,368.3h-94.8c-10.6,0-20.2,6.2-24.5,15.9l-80.8,180.9h137.3L432.9,368.3z"/>
		<linearGradient id="SVGID_47_" gradientUnits="userSpaceOnUse" x1="457.6467" y1="369.0279" x2="457.6467" y2="564.0519">
			<stop  offset="0" style="stop-color:#F07F2D"/>
			<stop  offset="1" style="stop-color:#F8AC34"/>
		</linearGradient>
		<polygon fill="url(#SVGID_47_)" points="545.2,368.3 432.9,368.3 370.1,565.1 507.5,565.1 		"/>
		<linearGradient id="SVGID_48_" gradientUnits="userSpaceOnUse" x1="582.4319" y1="369.0279" x2="582.4319" y2="564.0519">
			<stop  offset="0" style="stop-color:#EA5642"/>
			<stop  offset="1" style="stop-color:#EE6F40"/>
		</linearGradient>
		<polygon fill="url(#SVGID_48_)" points="657.4,368.3 545.2,368.3 507.5,565.1 644.8,565.1 		"/>
		<linearGradient id="SVGID_49_" gradientUnits="userSpaceOnUse" x1="713.495" y1="369.0279" x2="713.495" y2="564.0519">
			<stop  offset="0" style="stop-color:#F07F2D"/>
			<stop  offset="1" style="stop-color:#F8AC34"/>
		</linearGradient>
		<polygon fill="url(#SVGID_49_)" points="769.6,368.3 657.4,368.3 644.8,565.1 782.2,565.1 		"/>
		<linearGradient id="SVGID_50_" gradientUnits="userSpaceOnUse" x1="844.5576" y1="369.0279" x2="844.5576" y2="564.0519">
			<stop  offset="0" style="stop-color:#EA5642"/>
			<stop  offset="1" style="stop-color:#EE6F40"/>
		</linearGradient>
		<polygon fill="url(#SVGID_50_)" points="881.8,368.3 769.6,368.3 782.2,565.1 919.5,565.1 		"/>
		<linearGradient id="SVGID_51_" gradientUnits="userSpaceOnUse" x1="969.3426" y1="369.0279" x2="969.3426" y2="564.0519">
			<stop  offset="0" style="stop-color:#F07F2D"/>
			<stop  offset="1" style="stop-color:#F8AC34"/>
		</linearGradient>
		<polygon fill="url(#SVGID_51_)" points="994.1,368.3 881.8,368.3 919.5,565.1 1056.8,565.1 		"/>
		<linearGradient id="SVGID_52_" gradientUnits="userSpaceOnUse" x1="1094.1276" y1="369.0279" x2="1094.1276" y2="564.0519">
			<stop  offset="0" style="stop-color:#EA5642"/>
			<stop  offset="1" style="stop-color:#EE6F40"/>
		</linearGradient>
		<path fill="url(#SVGID_52_)" d="M1088.9,368.3h-94.8l62.8,196.8h137.3l-80.8-180.9C1109.1,374.6,1099.5,368.3,1088.9,368.3z"/>
	</g>
	<linearGradient id="SVGID_53_" gradientUnits="userSpaceOnUse" x1="713.4946" y1="1262.6392" x2="713.4946" y2="1197.8083">
		<stop  offset="0" style="stop-color:#EA5642"/>
		<stop  offset="1" style="stop-color:#EE6F40"/>
	</linearGradient>
	<path fill="url(#SVGID_53_)" d="M1062.7,1259.9H364.3c-0.6,0-1-0.5-1-1v-37.2c0-0.6,0.5-1,1-1h698.3c0.6,0,1,0.5,1,1v37.2
		C1063.7,1259.4,1063.2,1259.9,1062.7,1259.9z"/>
	<linearGradient id="SVGID_54_" gradientUnits="userSpaceOnUse" x1="713.495" y1="1288.4956" x2="713.495" y2="1223.6661">
		<stop  offset="0" style="stop-color:#982A29"/>
		<stop  offset="1" style="stop-color:#C64034"/>
	</linearGradient>
	<path fill="url(#SVGID_54_)" d="M1078.2,1285.7H348.8c-0.6,0-1.1-0.5-1.1-1.1v-37.2c0-0.6,0.5-1.1,1.1-1.1h729.5
		c0.6,0,1.1,0.5,1.1,1.1v37.2C1079.3,1285.3,1078.8,1285.7,1078.2,1285.7z"/>
	<g>
		<linearGradient id="SVGID_55_" gradientUnits="userSpaceOnUse" x1="721.76" y1="996.2536" x2="721.76" y2="826.4299">
			<stop  offset="0" style="stop-color:#EA5642"/>
			<stop  offset="1" style="stop-color:#EE6F40"/>
		</linearGradient>
		<path fill-rule="evenodd" clip-rule="evenodd" fill="url(#SVGID_55_)" d="M653.9,862.6c9.4,16.2,28.1,42.8,43,60.6
			c17.7,21.2,33.3,20.9,43.8,28.8c10.5,7.9,27.4,33.3,43.1,45c7.2,5.4,19.6,0,5-16c-24.9-27.2-130.4-134.8-138.1-137.3
			C644,841.7,651.5,858.5,653.9,862.6z"/>
		<linearGradient id="SVGID_56_" gradientUnits="userSpaceOnUse" x1="722.0458" y1="996.2535" x2="722.0458" y2="826.4299">
			<stop  offset="0" style="stop-color:#EA5642"/>
			<stop  offset="1" style="stop-color:#EE6F40"/>
		</linearGradient>
		<path fill-rule="evenodd" clip-rule="evenodd" fill="url(#SVGID_56_)" d="M804.5,863.1c0.8-1.6-0.8-1.7-3.1,0
			c-7.4,5.5-26,24.1-31.4,28.3c-7,5.5-10.9,3-9.5,0.4c2.6-4.7,22.5-28.3,27.1-34.3c5.9-7.7,4.4-8.7,4.4-8.7s-0.9-1.5-8.7,4.4
			c-6,4.6-29.6,24.5-34.3,27.1c-2.6,1.4-5-2.5,0.4-9.5c4.1-5.3,22.8-24,28.3-31.4c1.7-2.3,1.6-3.9,0-3.1c0,0-42.7,30.3-43,38.3
			c-0.1,1.5,0.2,3.1,0.8,4.9c2.5,8,0.7,16.7-5.3,22.5c-6.4,6.3-14.3,15.6-24.4,24.2c-19.7,17-78.6,58.5-64.2,72.9
			c14.4,14.4,57.7-46.6,72.9-64.2c8.7-10.1,17.9-17.9,24.2-24.4c5.9-6,14.5-7.7,22.5-5.3c1.7,0.5,3.4,0.8,4.9,0.8
			C774.2,905.9,804.5,863.1,804.5,863.1z"/>
	</g>
	<g opacity="0.5">
		<linearGradient id="SVGID_57_" gradientUnits="userSpaceOnUse" x1="1224.6786" y1="351.7829" x2="1319.5272" y2="351.7829">
			<stop  offset="0" style="stop-color:#FBBA10"/>
			<stop  offset="1" style="stop-color:#F6A019"/>
		</linearGradient>
		<path fill="url(#SVGID_57_)" d="M1319.5,351.8c0,26.2-21.2,47.4-47.4,47.4s-47.4-21.2-47.4-47.4c0-26.2,21.2-47.4,47.4-47.4
			S1319.5,325.6,1319.5,351.8z"/>
		<linearGradient id="SVGID_58_" gradientUnits="userSpaceOnUse" x1="473.9839" y1="1359.6023" x2="556.2091" y2="1359.6023">
			<stop  offset="0" style="stop-color:#FBBA10"/>
			<stop  offset="1" style="stop-color:#F6A019"/>
		</linearGradient>
		<circle fill="url(#SVGID_58_)" cx="515.1" cy="1359.6" r="41.1"/>
		<linearGradient id="SVGID_59_" gradientUnits="userSpaceOnUse" x1="572.7628" y1="231.6084" x2="644.0934" y2="231.6084">
			<stop  offset="0" style="stop-color:#FBBA10"/>
			<stop  offset="1" style="stop-color:#F6A019"/>
		</linearGradient>
		<path fill="url(#SVGID_59_)" d="M644.1,231.6c0,19.7-16,35.7-35.7,35.7c-19.7,0-35.7-16-35.7-35.7c0-19.7,16-35.7,35.7-35.7
			C628.1,195.9,644.1,211.9,644.1,231.6z"/>
		<linearGradient id="SVGID_60_" gradientUnits="userSpaceOnUse" x1="1291.0742" y1="644.9987" x2="1327.6609" y2="644.9987">
			<stop  offset="0" style="stop-color:#FBBA10"/>
			<stop  offset="1" style="stop-color:#F6A019"/>
		</linearGradient>
		<path fill="url(#SVGID_60_)" d="M1327.7,645c0,10.1-8.2,18.3-18.3,18.3s-18.3-8.2-18.3-18.3s8.2-18.3,18.3-18.3
			S1327.7,634.9,1327.7,645z"/>
		<linearGradient id="SVGID_61_" gradientUnits="userSpaceOnUse" x1="255.4412" y1="727.4923" x2="273.9503" y2="727.4923">
			<stop  offset="0" style="stop-color:#FBBA10"/>
			<stop  offset="1" style="stop-color:#F6A019"/>
		</linearGradient>
		<path fill="url(#SVGID_61_)" d="M274,727.5c0,5.1-4.1,9.3-9.3,9.3c-5.1,0-9.3-4.1-9.3-9.3c0-5.1,4.1-9.3,9.3-9.3
			C269.8,718.2,274,722.4,274,727.5z"/>
		<linearGradient id="SVGID_62_" gradientUnits="userSpaceOnUse" x1="165.4236" y1="390.9029" x2="210.5659" y2="390.9029">
			<stop  offset="0" style="stop-color:#FBBA10"/>
			<stop  offset="1" style="stop-color:#F6A019"/>
		</linearGradient>
		<circle fill="url(#SVGID_62_)" cx="188" cy="390.9" r="22.6"/>
		<linearGradient id="SVGID_63_" gradientUnits="userSpaceOnUse" x1="148.5008" y1="551.7943" x2="227.4896" y2="551.7943">
			<stop  offset="0" style="stop-color:#FBBA10"/>
			<stop  offset="1" style="stop-color:#F6A019"/>
		</linearGradient>
		<path fill="url(#SVGID_63_)" d="M227.5,551.8c0,21.8-17.7,39.5-39.5,39.5c-21.8,0-39.5-17.7-39.5-39.5c0-21.8,17.7-39.5,39.5-39.5
			C209.8,512.3,227.5,530,227.5,551.8z"/>
		<linearGradient id="SVGID_64_" gradientUnits="userSpaceOnUse" x1="1245.7559" y1="1001.1541" x2="1264.2643" y2="1001.1541">
			<stop  offset="0" style="stop-color:#FBBA10"/>
			<stop  offset="1" style="stop-color:#F6A019"/>
		</linearGradient>
		<circle fill="url(#SVGID_64_)" cx="1255" cy="1001.2" r="9.3"/>
		<linearGradient id="SVGID_65_" gradientUnits="userSpaceOnUse" x1="1236.5017" y1="512.2999" x2="1255.0101" y2="512.2999">
			<stop  offset="0" style="stop-color:#FBBA10"/>
			<stop  offset="1" style="stop-color:#F6A019"/>
		</linearGradient>
		<path fill="url(#SVGID_65_)" d="M1255,512.3c0,5.1-4.1,9.3-9.3,9.3s-9.3-4.1-9.3-9.3c0-5.1,4.1-9.3,9.3-9.3S1255,507.2,1255,512.3
			z"/>
		<linearGradient id="SVGID_66_" gradientUnits="userSpaceOnUse" x1="136.0123" y1="1056.4723" x2="160.9892" y2="1056.4723">
			<stop  offset="0" style="stop-color:#FBBA10"/>
			<stop  offset="1" style="stop-color:#F6A019"/>
		</linearGradient>
		<circle fill="url(#SVGID_66_)" cx="148.5" cy="1056.5" r="12.5"/>
		<linearGradient id="SVGID_67_" gradientUnits="userSpaceOnUse" x1="1123.7661" y1="1287.2257" x2="1166.0449" y2="1287.2257">
			<stop  offset="0" style="stop-color:#FBBA10"/>
			<stop  offset="1" style="stop-color:#F6A019"/>
		</linearGradient>
		<path fill="url(#SVGID_67_)" d="M1166,1287.2c0,11.7-9.5,21.1-21.1,21.1c-11.7,0-21.1-9.5-21.1-21.1c0-11.7,9.5-21.1,21.1-21.1
			C1156.6,1266.1,1166,1275.6,1166,1287.2z"/>
	</g>
	<g>
		<linearGradient id="SVGID_68_" gradientUnits="userSpaceOnUse" x1="459.3487" y1="808.3809" x2="459.3487" y2="974.6126">
			<stop  offset="0" style="stop-color:#FBBA10"/>
			<stop  offset="1" style="stop-color:#F6A019"/>
		</linearGradient>
		<path fill="url(#SVGID_68_)" d="M540,986.7H393.2l-13.8-98.4c-5.7-40.7,25.8-77,66.9-77c5.2,0,10.3,0.5,15.3,1.5
			c15.2,2.7,29,9.8,40.2,19.8c14.8,13.2,24.9,31.8,27.1,52.9L540,986.7z"/>
		<linearGradient id="SVGID_69_" gradientUnits="userSpaceOnUse" x1="473.984" y1="809.895" x2="473.984" y2="974.7156">
			<stop  offset="0" style="stop-color:#FBBA10"/>
			<stop  offset="1" style="stop-color:#F6A019"/>
		</linearGradient>
		<path fill="url(#SVGID_69_)" d="M540,986.7H422.4l-13.8-98.4c-5.1-35.9,18.9-68.4,53-75.5c15.2,2.7,29,9.8,40.2,19.8
			c14.8,13.2,24.9,31.8,27.1,52.9L540,986.7z"/>
		<linearGradient id="SVGID_70_" gradientUnits="userSpaceOnUse" x1="465.882" y1="981.6866" x2="465.882" y2="994.4333">
			<stop  offset="0" style="stop-color:#982A29"/>
			<stop  offset="1" style="stop-color:#C64034"/>
		</linearGradient>
		<path fill="url(#SVGID_70_)" d="M540.9,995.4h-150c-3.7,0-6.7-3-6.7-6.7l0,0c0-3.7,3-6.7,6.7-6.7h150c3.7,0,6.7,3,6.7,6.7l0,0
			C547.6,992.4,544.6,995.4,540.9,995.4z"/>
	</g>
	<g>
		
			<linearGradient id="SVGID_71_" gradientUnits="userSpaceOnUse" x1="100.0308" y1="808.3809" x2="100.0308" y2="974.6126" gradientTransform="matrix(-1 0 0 1 1063.915 0)">
			<stop  offset="0" style="stop-color:#FBBA10"/>
			<stop  offset="1" style="stop-color:#F6A019"/>
		</linearGradient>
		<path fill="url(#SVGID_71_)" d="M883.2,986.7h146.9l13.8-98.4c5.7-40.7-25.8-77-66.9-77c-5.2,0-10.3,0.5-15.3,1.5
			c-15.2,2.7-29,9.8-40.2,19.8c-14.8,13.2-24.9,31.8-27.1,52.9L883.2,986.7z"/>
		
			<linearGradient id="SVGID_72_" gradientUnits="userSpaceOnUse" x1="114.6662" y1="809.895" x2="114.6662" y2="974.7156" gradientTransform="matrix(-1 0 0 1 1063.915 0)">
			<stop  offset="0" style="stop-color:#FBBA10"/>
			<stop  offset="1" style="stop-color:#F6A019"/>
		</linearGradient>
		<path fill="url(#SVGID_72_)" d="M883.2,986.7h117.6l13.8-98.4c5.1-35.9-18.9-68.4-53-75.5c-15.2,2.7-29,9.8-40.2,19.8
			c-14.8,13.2-24.9,31.8-27.1,52.9L883.2,986.7z"/>
		
			<linearGradient id="SVGID_73_" gradientUnits="userSpaceOnUse" x1="106.5644" y1="981.6866" x2="106.5644" y2="994.4333" gradientTransform="matrix(-1 0 0 1 1063.915 0)">
			<stop  offset="0" style="stop-color:#982A29"/>
			<stop  offset="1" style="stop-color:#C64034"/>
		</linearGradient>
		<path fill="url(#SVGID_73_)" d="M882.4,995.4h150c3.7,0,6.7-3,6.7-6.7l0,0c0-3.7-3-6.7-6.7-6.7h-150c-3.7,0-6.7,3-6.7,6.7l0,0
			C875.6,992.4,878.7,995.4,882.4,995.4z"/>
	</g>
	<linearGradient id="SVGID_74_" gradientUnits="userSpaceOnUse" x1="994.0684" y1="19.9104" x2="994.0684" y2="300.368">
		<stop  offset="0" style="stop-color:#EC683A"/>
		<stop  offset="1" style="stop-color:#E83E3A"/>
	</linearGradient>
	<path fill="url(#SVGID_74_)" d="M895.2,159.9L895.2,159.9c18.3,49.5,68,117.8,89.1,145.7c4.9,6.5,14.6,6.5,19.5,0
		c21.2-27.9,70.8-96.2,89.1-145.7l0,0c4.1-11.3,6.4-23.5,6.4-36.3c0-58.2-47.1-105.3-105.3-105.3c-58.2,0-105.3,47.1-105.3,105.3
		C888.8,136.4,891,148.6,895.2,159.9z M1050.5,123.6c0,31.2-25.3,56.4-56.4,56.4c-31.1,0-56.4-25.2-56.4-56.4
		c0-31.2,25.3-56.4,56.4-56.4C1025.2,67.2,1050.5,92.5,1050.5,123.6z"/>
</g>
</svg>
