<?xml version="1.0" encoding="utf-8"?>
<!-- Generator: Adobe Illustrator 24.2.3, SVG Export Plug-In . SVG Version: 6.00 Build 0)  -->
<svg version="1.1" id="Capa_1" xmlns="http://www.w3.org/2000/svg" xmlns:xlink="http://www.w3.org/1999/xlink" x="0px" y="0px"
	 viewBox="0 0 1440 1440" enable-background="new 0 0 1440 1440" xml:space="preserve">
<g>
	<g>
		<g opacity="0.15">
			
				<linearGradient id="SVGID_1_" gradientUnits="userSpaceOnUse" x1="1149.48" y1="1175.0654" x2="282.1927" y2="22.9318" gradientTransform="matrix(0.9192 0.3937 -0.3937 0.9192 309.1547 -143.6377)">
				<stop  offset="0" style="stop-color:#FFBB00"/>
				<stop  offset="1" style="stop-color:#FFA100"/>
			</linearGradient>
			<path fill="url(#SVGID_1_)" d="M886.7,37.6c-86.9,8.1-173.8,102.6-245.8,151.9c-72,49.2-152.2,59.6-236.5,82.1
				c-55.6,14.8-114.7,13.8-169.3,32.1c-68,22.8-125.2,76.2-152.4,142.6c-27.2,66.4-24.1,144.5,8.4,208.5
				c49.5,97.6,162.5,164.2,174.6,272.9c7.6,68.7-28.8,134.6-34.3,203.5c-8.2,102.2,46.3,213.4,137.8,259.7
				c203.6,102.9,397.4-80.6,545.8-107.4c65.6-11.8,136.7-21.9,202.4-33.5c102.5-18.1,201.1-46.3,258.5-170.1
				c21.9-47.3,8-133-8.1-182.6c-72.2-222.1-123.6-246.1-98.7-373.7C1337.3,173.2,1135.1,14.4,886.7,37.6z"/>
		</g>
		<g opacity="0.15">
			<linearGradient id="SVGID_2_" gradientUnits="userSpaceOnUse" x1="160.4766" y1="122.8398" x2="621.8919" y2="122.8398">
				<stop  offset="0" style="stop-color:#FFBB00"/>
				<stop  offset="1" style="stop-color:#FFA100"/>
			</linearGradient>
			<path fill="url(#SVGID_2_)" d="M393.2,32.1c-43.1,7.2-86.2,14.5-129.4,21.7c-15.1,2.5-30.4,5.1-44.5,11.1
				c-34.9,14.9-59.1,52-58.8,89.9c0.1,14.8,3.9,29.8,12.5,41.8c16.5,22.8,46.2,38.9,74,43.6c66.9,11.4,136,3.5,202.5-9.6
				c231.2-45.5,185.8-188,115.4-221.8C513.9-15.7,442.8,17.1,393.2,32.1"/>
		</g>
		<g opacity="0.15">
			<linearGradient id="SVGID_3_" gradientUnits="userSpaceOnUse" x1="62.5654" y1="916.8574" x2="231.2262" y2="916.8574">
				<stop  offset="0" style="stop-color:#FFBB00"/>
				<stop  offset="1" style="stop-color:#FFA100"/>
			</linearGradient>
			<path fill="url(#SVGID_3_)" d="M154.4,794.3c30.6,35.3,56.7,75.5,69.2,120.5c12.5,45,10.4,95.2-12.3,136
				c-8.2,14.7-19.2,28.3-33.9,36.6c-14.7,8.2-33.4,10.4-48.5,2.9c-16.3-8.2-25.9-26.3-28.6-44.3c-2.7-18.1,0.3-36.4,3.2-54.5
				c6.7-42.7,11.8-88.1-5.6-127.7c-9.4-21.4-25-39.9-32.2-62c-7.2-22.2-2.4-51.5,18.9-61c3-1.3,6.3-2.2,9.6-1.8c3.7,0.5,7,2.8,10,5
				C115,752.2,136.3,774.6,154.4,794.3"/>
		</g>
		<g opacity="0.15">
			
				<linearGradient id="SVGID_4_" gradientUnits="userSpaceOnUse" x1="1099.9277" y1="1228.9261" x2="1346.3518" y2="1228.9261" gradientTransform="matrix(0.9929 0.1191 -0.1191 0.9929 93.4619 -60.0361)">
				<stop  offset="0" style="stop-color:#FFBB00"/>
				<stop  offset="1" style="stop-color:#FFA100"/>
			</linearGradient>
			<path fill="url(#SVGID_4_)" d="M1051.7,1289.5c-12.6,9.5-21.6,33.4-12,46c33.5,43.9,130,32.2,161.6,24.8
				c53.9-12.7,102.2-38.6,79.1-86.4c-12.5-25.9-46-27.2-59.6-24.8c-10.3,1.9-45.1,14.7-81.2,22.8
				C1100,1280.7,1071.9,1274.3,1051.7,1289.5z"/>
		</g>
	</g>
	<g>
		<g>
			
				<linearGradient id="SVGID_5_" gradientUnits="userSpaceOnUse" x1="663.9882" y1="121.7025" x2="663.9882" y2="1109.6682" gradientTransform="matrix(0.9885 -0.1512 0.1512 0.9885 -95.5051 82.8418)">
				<stop  offset="0" style="stop-color:#FFFFFF"/>
				<stop  offset="1" style="stop-color:#ECDBA6"/>
			</linearGradient>
			<path fill="url(#SVGID_5_)" d="M1012.1,1071.7l-556.3,85.1c-2.7,0.4-5.2-1.4-5.6-4.1L289.7,103.5c-0.4-2.7,1.4-5.2,4.1-5.6
				l556.3-85.1c2.7-0.4,5.2,1.4,5.6,4.1l160.5,1049.2C1016.7,1068.8,1014.8,1071.3,1012.1,1071.7z"/>
			<linearGradient id="SVGID_6_" gradientUnits="userSpaceOnUse" x1="878.3906" y1="247.2168" x2="920.7899" y2="247.2168">
				<stop  offset="0" style="stop-color:#882C00"/>
				<stop  offset="1" style="stop-color:#F26F3C"/>
			</linearGradient>
			<path fill="url(#SVGID_6_)" d="M920,297l-25.8,3.9l-15.8-103.5l25.8-3.9c0.5-0.1,0.9,0.3,1,0.7L920.8,296
				C920.9,296.5,920.5,296.9,920,297z"/>
			<linearGradient id="SVGID_7_" gradientUnits="userSpaceOnUse" x1="296.0472" y1="336.2013" x2="338.4465" y2="336.2013">
				<stop  offset="0" style="stop-color:#882C00"/>
				<stop  offset="1" style="stop-color:#F26F3C"/>
			</linearGradient>
			<path fill="url(#SVGID_7_)" d="M312.6,389.9l25.8-3.9l-15.8-103.5l-25.8,3.9c-0.5,0.1-0.8,0.5-0.7,1l15.6,101.8
				C311.7,389.7,312.2,390,312.6,389.9z"/>
			<linearGradient id="SVGID_8_" gradientUnits="userSpaceOnUse" x1="896.76" y1="367.2914" x2="939.1593" y2="367.2914">
				<stop  offset="0" style="stop-color:#882C00"/>
				<stop  offset="1" style="stop-color:#F26F3C"/>
			</linearGradient>
			<path fill="url(#SVGID_8_)" d="M938.4,417.1l-25.8,3.9l-15.8-103.5l25.8-3.9c0.5-0.1,0.9,0.3,1,0.7l15.6,101.8
				C939.2,416.6,938.9,417,938.4,417.1z"/>
			<linearGradient id="SVGID_9_" gradientUnits="userSpaceOnUse" x1="743.7443" y1="1092.7762" x2="558.0286" y2="51.8991">
				<stop  offset="0" style="stop-color:#882C00"/>
				<stop  offset="1" style="stop-color:#F26F3C"/>
			</linearGradient>
			<path fill="url(#SVGID_9_)" d="M802.4,5.9L337.3,77c-35.5,5.4-59.9,38.6-54.4,74.1l145,948.1c6.3,41,44.6,69.2,85.6,62.9
				l445.2-68.1c41-6.3,69.2-44.6,62.9-85.6l-145-948.1C871.1,24.8,837.9,0.5,802.4,5.9z M993.5,1010c2.8,18.4-9.8,35.6-28.2,38.4
				l-471.8,72.2c-18.4,2.8-35.6-9.8-38.4-28.2L310.3,146c-2.3-15.2,8.1-29.5,23.4-31.8l119.6-18.3c4.6-0.7,9.3,1,12.4,4.5l20.7,23.2
				c3.2,3.6,8,5.3,12.8,4.6l90.8-13.9l90.8-13.9c4.8-0.7,8.9-3.8,10.8-8.2l12.8-28.4c1.9-4.3,5.9-7.3,10.5-8L817,40.3
				c15.2-2.3,29.5,8.1,31.8,23.4L993.5,1010z"/>
			<linearGradient id="SVGID_10_" gradientUnits="userSpaceOnUse" x1="513.2943" y1="87.6503" x2="631.8613" y2="87.6503">
				<stop  offset="0" style="stop-color:#FFBB00"/>
				<stop  offset="1" style="stop-color:#FFA100"/>
			</linearGradient>
			<path fill="url(#SVGID_10_)" d="M627.3,84.8l-107.7,16.5c-3,0.5-5.7-1.6-6.2-4.5c-0.5-3,1.6-5.7,4.5-6.2L625.6,74
				c3-0.5,5.7,1.6,6.2,4.5S630.2,84.3,627.3,84.8z"/>
			<linearGradient id="SVGID_11_" gradientUnits="userSpaceOnUse" x1="647.1266" y1="75.4145" x2="657.9928" y2="75.4145">
				<stop  offset="0" style="stop-color:#FFBB00"/>
				<stop  offset="1" style="stop-color:#FFA100"/>
			</linearGradient>
			<path fill="url(#SVGID_11_)" d="M657.9,74.6c0.5,3-1.6,5.7-4.5,6.2c-3,0.5-5.7-1.6-6.2-4.5c-0.5-3,1.6-5.7,4.5-6.2
				C654.7,69.6,657.5,71.6,657.9,74.6z"/>
		</g>
		<g>
			<g>
				<g>
					<path fill="#FFFFFF" d="M909.8,750.7l-336.9,51.5c-4.8,0.7-9.2-2.5-10-7.3l0,0c-0.7-4.8,2.5-9.2,7.3-10l336.9-51.5
						c4.8-0.7,9.2,2.5,10,7.3l0,0C917.9,745.5,914.6,750,909.8,750.7z"/>
				</g>
				<g>
					<path fill="#FFFFFF" d="M914.2,779.2l-336.9,51.5c-4.8,0.7-9.2-2.5-10-7.3l0,0c-0.7-4.8,2.5-9.2,7.3-10l336.9-51.5
						c4.8-0.7,9.2,2.5,10,7.3l0,0C922.2,774,919,778.5,914.2,779.2z"/>
				</g>
				<g>
					<path fill="#FFFFFF" d="M773.5,829.8l-191.8,29.3c-4.8,0.7-9.2-2.5-10-7.3l0,0c-0.7-4.8,2.5-9.2,7.3-10l191.8-29.3
						c4.8-0.7,9.2,2.5,10,7.3l0,0C781.5,824.6,778.3,829.1,773.5,829.8z"/>
				</g>
				<g>
					<path fill="#FFFFFF" d="M918.5,807.6l-118.9,18.2c-4.8,0.7-9.2-2.5-10-7.3l0,0c-0.7-4.8,2.5-9.2,7.3-10l118.9-18.2
						c4.8-0.7,9.2,2.5,10,7.3v0C926.6,802.5,923.3,806.9,918.5,807.6z"/>
				</g>
				<g>
					<path fill="#FFFFFF" d="M726.2,866.2L586,887.6c-4.8,0.7-9.2-2.5-10-7.3l0,0c-0.7-4.8,2.5-9.2,7.3-10l140.2-21.4
						c4.8-0.7,9.2,2.5,10,7.3l0,0C734.2,861,730.9,865.5,726.2,866.2z"/>
				</g>
				<g>
					<path fill="#FFFFFF" d="M563,891.1l-99.6,15.2c-0.8,0.1-1.6-0.4-1.7-1.3l-15.2-99.6c-0.1-0.8,0.4-1.6,1.3-1.7l99.6-15.2
						c0.8-0.1,1.6,0.4,1.7,1.3l15.2,99.6C564.4,890.2,563.8,891,563,891.1z"/>
				</g>
				<g opacity="0.8">
					<path fill="#FFFFFF" d="M911,708.7l-467.1,71.5c-0.7,0.1-1.3-0.4-1.5-1.1l-5.1-33.4c-0.1-0.7,0.4-1.3,1.1-1.5l467.1-71.5
						c0.7-0.1,1.3,0.4,1.5,1.1l5.1,33.4C912.1,707.9,911.6,708.6,911,708.7z"/>
				</g>
			</g>
		</g>
		<g>
			
				<linearGradient id="SVGID_12_" gradientUnits="userSpaceOnUse" x1="426.4353" y1="468.912" x2="901.5364" y2="468.912" gradientTransform="matrix(0.9885 -0.1512 0.1512 0.9885 -95.5051 82.8418)">
				<stop  offset="0" style="stop-color:#FFBB00"/>
				<stop  offset="1" style="stop-color:#FFA100"/>
			</linearGradient>
			<path opacity="0.3" fill="url(#SVGID_12_)" d="M898.5,645.5l-461.8,70.6c-2.2,0.3-4.2-1.2-4.5-3.3L361.6,251
				c-0.3-2.2,1.2-4.2,3.3-4.5l461.8-70.6c2.2-0.3,4.2,1.2,4.5,3.3l70.6,461.8C902.2,643.1,900.7,645.1,898.5,645.5z"/>
			<g>
				
					<linearGradient id="SVGID_13_" gradientUnits="userSpaceOnUse" x1="662.0463" y1="655.0055" x2="662.0463" y2="590.0552" gradientTransform="matrix(0.9885 -0.1512 0.1512 0.9885 -95.5051 82.8418)">
					<stop  offset="0" style="stop-color:#EF543F"/>
					<stop  offset="1" style="stop-color:#F26F3C"/>
				</linearGradient>
				<path fill="url(#SVGID_13_)" d="M834,505.2l-190,33.7l-191.4,24.7c0,0-26.1,37.7,1,69.9c27.1,32.2,205.5,4.1,205.5,4.1
					s178.6-26.5,194.9-65.4S834,505.2,834,505.2z"/>
				
					<linearGradient id="SVGID_14_" gradientUnits="userSpaceOnUse" x1="658.6203" y1="551.0961" x2="658.6203" y2="588.0237" gradientTransform="matrix(0.9885 -0.1512 0.1512 0.9885 -95.5051 82.8418)">
					<stop  offset="0" style="stop-color:#008B42"/>
					<stop  offset="0.4892" style="stop-color:#3FB342"/>
					<stop  offset="1" style="stop-color:#80C242"/>
				</linearGradient>
				<path fill="url(#SVGID_14_)" d="M452,532.1c0.9-1-24.6,41.9-16.9,54.5c13.1,11.3,30.5-28.2,36.9-11.9c4.3,18.9,24.9-1.6,39.2,2
					c14.3,3.6,26.9-11.6,46.8-15.1c19.9-3.6,22.2,7.7,40.4,7.8c18.2,0.1,10.4-9.5,21.4-13.5c11-4,24.4,4.5,31.5,4.2
					c7.1-0.3,10.4-16.5,22.1-16.1c12.8,0.4,15.2,16.4,26.6,15.4c11.4-0.9,16.6-25,26.4-25.6c9.8-0.6,22.7,12.7,36.1,10.1
					c13.4-2.6,6.3-17.5,22.5-16.2c16.2,1.3-8.3-20.2,34.4-6.1c22.5,7.4,37-1.9,28.2-9.6c-6.1-5.4-4-27.2-20.8-39.6
					C810.2,460,452,532.1,452,532.1z"/>
				
					<linearGradient id="SVGID_15_" gradientUnits="userSpaceOnUse" x1="663.595" y1="530.1671" x2="663.595" y2="547.9294" gradientTransform="matrix(0.9885 -0.1512 0.1512 0.9885 -95.5051 82.8418)">
					<stop  offset="0" style="stop-color:#972929"/>
					<stop  offset="1" style="stop-color:#C63F34"/>
				</linearGradient>
				<path fill="url(#SVGID_15_)" d="M843,495.4l-398.8,61c-1.3,0.2-2.5-0.7-2.7-2l-4.7-30.4c-0.2-1.3,0.7-2.5,2-2.7l398.8-61
					c1.3-0.2,2.5,0.7,2.7,2l4.7,30.4C845.1,494,844.2,495.2,843,495.4z"/>
				
					<linearGradient id="SVGID_16_" gradientUnits="userSpaceOnUse" x1="662.6268" y1="513.6781" x2="662.6268" y2="537.0782" gradientTransform="matrix(0.9885 -0.1512 0.1512 0.9885 -95.5051 82.8418)">
					<stop  offset="0" style="stop-color:#F57E29"/>
					<stop  offset="1" style="stop-color:#FAAC33"/>
				</linearGradient>
				<path fill="url(#SVGID_16_)" d="M834.2,450.5l-198.5,30.4h0l-198.5,30.4c0,0-5.6,6.8-0.4,12.8c9.2,10.6,204.6-5.3,204.6-5.3
					c0,0,191.2-43.2,196.9-56.1C841.5,455.3,834.2,450.5,834.2,450.5z"/>
				
					<linearGradient id="SVGID_17_" gradientUnits="userSpaceOnUse" x1="663.5942" y1="493.333" x2="663.5942" y2="511.0953" gradientTransform="matrix(0.9885 -0.1512 0.1512 0.9885 -95.5051 82.8418)">
					<stop  offset="0" style="stop-color:#972929"/>
					<stop  offset="1" style="stop-color:#C63F34"/>
				</linearGradient>
				<path fill="url(#SVGID_17_)" d="M837.4,459l-398.7,61c-1.3,0.2-2.5-0.7-2.7-2l-4.7-30.4c-0.2-1.3,0.7-2.5,2-2.7l398.8-61
					c1.3-0.2,2.5,0.7,2.7,2l4.7,30.4C839.6,457.6,838.7,458.8,837.4,459z"/>
				
					<linearGradient id="SVGID_18_" gradientUnits="userSpaceOnUse" x1="662.6259" y1="471.8817" x2="662.6259" y2="492.9951" gradientTransform="matrix(0.9885 -0.1512 0.1512 0.9885 -95.5051 82.8418)">
					<stop  offset="0" style="stop-color:#A62938"/>
					<stop  offset="1" style="stop-color:#ED2938"/>
				</linearGradient>
				<path fill="url(#SVGID_18_)" d="M819.4,401.1l-190.6,34.6l-192.2,24c0,0-16.6,30.8-0.7,33.9c15.9,3.1,149.1-13.9,198.5-21.4
					c49.4-7.6,181.6-31.1,195.8-38.9C844.5,425.5,819.4,401.1,819.4,401.1z"/>
				
					<linearGradient id="SVGID_19_" gradientUnits="userSpaceOnUse" x1="662.0425" y1="438.4805" x2="662.0425" y2="480.6612" gradientTransform="matrix(0.9885 -0.1512 0.1512 0.9885 -95.5051 82.8418)">
					<stop  offset="0" style="stop-color:#008B42"/>
					<stop  offset="0.4892" style="stop-color:#3FB342"/>
					<stop  offset="1" style="stop-color:#80C242"/>
				</linearGradient>
				<path fill="url(#SVGID_19_)" d="M425.2,413c0.9-1-9.3,26-6.3,38.1c2.8,11.2-7.7,17.3,0,29.8c13.1,11.3,28.1-8.5,36.9-11.9
					c12.8-4.9,18.2-2.1,32.5,1.5c14.3,3.6,33.6-11.1,53.5-14.6c19.9-3.6,22.2,7.7,40.4,7.8s25.8-12.1,36.7-16.1
					c11-4,20.2,2.3,27.3,2c7.1-0.3,6.5-11.4,11-11.4c4.4,0,15.2,16.4,26.6,15.4c11.4-0.9,16.6-25,26.4-25.6
					c9.8-0.6,7.1,6.8,20.5,4.2c13.4-2.6,10.7-12.7,27-11.4c16.2,1.3,23.4-13.2,45.6-5c22.2,8.2,32.2,5.6,33.1-2.7
					c0.9-8.3,1.6-14.9,2.6-18.6c1.1-3.7-4.2-25.3-21-37.7C801.4,344.5,425.2,413,425.2,413z"/>
				
					<linearGradient id="SVGID_20_" gradientUnits="userSpaceOnUse" x1="662.6244" y1="441.5355" x2="662.6244" y2="324.6049" gradientTransform="matrix(0.9885 -0.1512 0.1512 0.9885 -95.5051 82.8418)">
					<stop  offset="0" style="stop-color:#EF543F"/>
					<stop  offset="1" style="stop-color:#F26F3C"/>
				</linearGradient>
				<path fill="url(#SVGID_20_)" d="M831.6,351.9c-16.7-27-46.3-45.7-78.8-58.6c-96.9-38.3-203.8-22-284.8,43.6
					c-27.2,22-49.8,48.6-57.7,79.4c-1.9,7.6,2.7,15.5,9.7,16.9c19.8,4.1,95.1,9.5,206.9-9.9c112.5-14.9,182.8-42.5,200.4-52.4
					C833.6,367.5,835.7,358.6,831.6,351.9z"/>
				<g>
					<g>
						<path fill="#F89F5A" d="M732,297.9c-1.2-0.6-9.1,5.7-4.3,8.5C732.9,308.5,733.2,298.5,732,297.9z"/>
						<path fill="#F89F5A" d="M621.8,294.7c-1.2-0.6-9.1,5.7-4.3,8.5C622.7,305.3,623.1,295.3,621.8,294.7z"/>
						<path fill="#F89F5A" d="M545.7,306.8c-1.1-0.8-10,3.8-5.9,7.5C544.5,317.4,546.7,307.7,545.7,306.8z"/>
						<path fill="#F89F5A" d="M558.6,327.3c0.8,1.1,10.7-0.4,7.9-5.3C563.1,317.6,557.8,326.2,558.6,327.3z"/>
						<path fill="#F89F5A" d="M563.1,298c0.8,1.1,10.7-0.4,7.9-5.3C567.6,288.3,562.4,296.8,563.1,298z"/>
						<path fill="#F89F5A" d="M614.6,321.1c0.8,1.1,10.7-0.4,7.9-5.3C619.1,311.4,613.9,320,614.6,321.1z"/>
						<path fill="#F89F5A" d="M655.6,289.3c0.8,1.1,10.7-0.4,7.9-5.3C660.1,279.6,654.8,288.2,655.6,289.3z"/>
						<path fill="#F89F5A" d="M581,308.3c-1,0.9,1.7,10.5,6.2,7.2C591.2,311.6,582.1,307.5,581,308.3z"/>
						<path fill="#F89F5A" d="M589,288.4c-1,0.9,1.7,10.5,6.2,7.2C599.2,291.6,590,287.5,589,288.4z"/>
						<path fill="#F89F5A" d="M517.6,313.7c-1,0.9,1.7,10.5,6.2,7.2C527.7,317,518.6,312.8,517.6,313.7z"/>
						<path fill="#F89F5A" d="M487.4,329.5c-1,0.9,1.7,10.5,6.2,7.2C497.6,332.8,488.4,328.6,487.4,329.5z"/>
						<path fill="#F89F5A" d="M629.5,282.2c-1,0.9,1.7,10.5,6.2,7.2C639.6,285.4,630.5,281.3,629.5,282.2z"/>
						<path fill="#F89F5A" d="M677.2,289.3c-1,0.9,1.7,10.5,6.2,7.2C687.4,292.6,678.2,288.4,677.2,289.3z"/>
						<path fill="#F89F5A" d="M658.2,308.8c-1.2-0.6-9.1,5.7-4.3,8.5C659.1,319.5,659.4,309.4,658.2,308.8z"/>
						<path fill="#F89F5A" d="M706.8,289.2c-1.2-0.6-9.1,5.7-4.3,8.5C707.7,299.9,708,289.8,706.8,289.2z"/>
					</g>
				</g>
			</g>
		</g>
		<g>
			<path fill="#FFA900" d="M808.5,981.3L614.8,1011c-17.2,2.6-33.3-9.2-36-26.4l0,0c-2.6-17.2,9.2-33.3,26.4-36L798.9,919
				c17.2-2.6,33.3,9.2,36,26.4l0,0C837.5,962.6,825.7,978.7,808.5,981.3z"/>
		</g>
	</g>
	<g>
		<defs>
			<path id="SVGID_21_" d="M886.7,37.6c-86.9,8.1-173.8,102.6-245.8,151.9c-72,49.2-152.2,59.6-236.5,82.1
				c-55.6,14.8-114.7,13.8-169.3,32.1c-68,22.8-125.2,76.2-152.4,142.6c-27.2,66.4-24.1,144.5,8.4,208.5
				c49.5,97.6,162.5,164.2,174.6,272.9c7.6,68.7-28.8,134.6-34.3,203.5c-8.2,102.2,46.3,213.4,137.8,259.7
				c203.6,102.9,397.4-80.6,545.8-107.4c65.6-11.8,136.7-21.9,202.4-33.5c102.5-18.1,201.1-46.3,258.5-170.1
				c21.9-47.3,8-133-8.1-182.6c-72.2-222.1-123.6-246.1-98.7-373.7C1337.3,173.2,1135.1,14.4,886.7,37.6z"/>
		</defs>
		<clipPath id="SVGID_22_">
			<use xlink:href="#SVGID_21_"  overflow="visible"/>
		</clipPath>
		<g clip-path="url(#SVGID_22_)">
			<linearGradient id="SVGID_23_" gradientUnits="userSpaceOnUse" x1="1288.5955" y1="1285.8499" x2="759.5196" y2="514.9102">
				<stop  offset="5.376340e-03" style="stop-color:#FFDDC9"/>
				<stop  offset="1" style="stop-color:#FFB3A9"/>
			</linearGradient>
			<path fill="url(#SVGID_23_)" d="M1384.5,1293.4l-253,57.2c0,0-36.7-89.4-56.2-118.4c-26.3-39-86.7-98.8-138.2-137.5
				c-23.2-17.5-55.4-46.3-80.5-78.6c-20.6-26.6-34.5-55.9-49.9-80.4c-7.4-11.9-13.9-22.8-19.1-32.2c-11.4-20.6-9-36.1,0.9-44.8h0.1
				c15.2-13.2,48.3-10.2,73.8,17.1C918.3,935.6,997,975.9,1001,978.4c-2.3-4.1-78.3-134.8-101.5-166.2
				C876,780.3,794.1,687.7,787.7,650.5c-2.2-13.1,4.4-24.7,13.8-28.8c0.1-0.1,0.2-0.1,0.2-0.1c6.2-2.7,14.4-2.2,24.5,2.9
				c13.3,6.8,28,17.2,43.1,29.5c50,40.6,103.1,101.3,115.8,115.9c8.8,10.2,29.5,34.4,51.9,60.8c5.3-0.3,11.6-0.6,18.3-0.8
				c17-0.6,36.6-0.5,49.8,1.9c6.1,1.2,12.6,5.6,19.4,12c0.1,0.1,0.1,0.1,0.1,0.1c2.7-0.1,5.4-0.1,8.1-0.1c14.4-0.3,29.4,0.2,40,2.2
				c9.4,1.8,18.1,6.8,26.1,13.6h5.9c36.1,1,64.1,35.2,79.8,60.3c9.3,14.9,14.7,31.8,16.2,49.2c4,44.3,13,141.4,19,182.3
				C1324.7,1184.9,1384.5,1293.4,1384.5,1293.4z"/>
			<linearGradient id="SVGID_24_" gradientUnits="userSpaceOnUse" x1="1021.7983" y1="806.5718" x2="1081.6042" y2="871.8146">
				<stop  offset="5.376340e-03" style="stop-color:#FFAB9C"/>
				<stop  offset="1" style="stop-color:#FFB3A9"/>
			</linearGradient>
			<path fill="url(#SVGID_24_)" d="M1088.6,892.6l-51.7-62c5.3-0.3,11.6-0.6,18.3-0.8L1088.6,892.6z"/>
			<linearGradient id="SVGID_25_" gradientUnits="userSpaceOnUse" x1="1117.3293" y1="831.5994" x2="1147.08" y2="864.0547">
				<stop  offset="5.376340e-03" style="stop-color:#FFAB9C"/>
				<stop  offset="1" style="stop-color:#FFB3A9"/>
			</linearGradient>
			<path fill="url(#SVGID_25_)" d="M1152.4,872.7c-7.8-9.4-27.9-28.8-27.9-28.8c2.7-0.1,5.4-0.1,8.1-0.1
				C1142.4,855.6,1151.2,870.5,1152.4,872.7z"/>
			<linearGradient id="SVGID_26_" gradientUnits="userSpaceOnUse" x1="1211.0913" y1="880.9153" x2="1204.9421" y2="855.8555">
				<stop  offset="5.376340e-03" style="stop-color:#FFAB9C"/>
				<stop  offset="1" style="stop-color:#FFB3A9"/>
			</linearGradient>
			<path fill="url(#SVGID_26_)" d="M1217.6,878.3c-5-5.6-18.8-18.7-18.8-18.7h5.9C1210.7,867.7,1216.6,876.9,1217.6,878.3z"/>
			<linearGradient id="SVGID_27_" gradientUnits="userSpaceOnUse" x1="823.9332" y1="926.5281" x2="775.6868" y2="862.4359">
				<stop  offset="5.376340e-03" style="stop-color:#FFDDC9"/>
				<stop  offset="1" style="stop-color:#FFFFF6"/>
			</linearGradient>
			<path fill="url(#SVGID_27_)" d="M832.2,910.7c0,4.3-17.5,10.4-25.4,24.9c-7.4-11.9-13.9-22.8-19.1-32.2
				c-7.6-13.7-10.5-24.2-8.6-32.2c1.5-6.6,9.5-9.5,15.5-6.3c1.3,0.7,2.8,1.5,4.3,2.5C813.2,876.3,832.2,906.3,832.2,910.7z"/>
			<linearGradient id="SVGID_28_" gradientUnits="userSpaceOnUse" x1="886.9095" y1="681.416" x2="806.3618" y2="630.6709">
				<stop  offset="5.376340e-03" style="stop-color:#FFDDC9"/>
				<stop  offset="1" style="stop-color:#FFFFF6"/>
			</linearGradient>
			<path fill="url(#SVGID_28_)" d="M869.2,654c-15,4-24.4,19.4-27.6,18.2c-3.3-1.2-31.1-24.7-39.9-34.8c-8-9.2-1.4-14.8-0.2-15.7
				c0.1-0.1,0.2-0.1,0.2-0.1c6.2-2.7,14.4-2.2,24.5,2.9C839.5,631.3,854.2,641.7,869.2,654z"/>
		</g>
	</g>
	<g opacity="0.5">
		<linearGradient id="SVGID_29_" gradientUnits="userSpaceOnUse" x1="1111.5647" y1="316.2593" x2="1210.5831" y2="316.2593">
			<stop  offset="0" style="stop-color:#FFBB00"/>
			<stop  offset="1" style="stop-color:#FFA100"/>
		</linearGradient>
		<circle fill="url(#SVGID_29_)" cx="1161.1" cy="316.3" r="49.5"/>
		<linearGradient id="SVGID_30_" gradientUnits="userSpaceOnUse" x1="648.8009" y1="1297.0033" x2="734.6409" y2="1297.0033">
			<stop  offset="0" style="stop-color:#FFBB00"/>
			<stop  offset="1" style="stop-color:#FFA100"/>
		</linearGradient>
		<circle fill="url(#SVGID_30_)" cx="691.7" cy="1297" r="42.9"/>
		<linearGradient id="SVGID_31_" gradientUnits="userSpaceOnUse" x1="998.4976" y1="159.7314" x2="1072.9646" y2="159.7314">
			<stop  offset="0" style="stop-color:#FFBB00"/>
			<stop  offset="1" style="stop-color:#FFA100"/>
		</linearGradient>
		<path fill="url(#SVGID_31_)" d="M1073,159.7c0,20.6-16.7,37.2-37.2,37.2c-20.6,0-37.2-16.7-37.2-37.2c0-20.6,16.7-37.2,37.2-37.2
			C1056.3,122.5,1073,139.2,1073,159.7z"/>
		<linearGradient id="SVGID_32_" gradientUnits="userSpaceOnUse" x1="1161.0739" y1="742.7053" x2="1199.269" y2="742.7053">
			<stop  offset="0" style="stop-color:#FFBB00"/>
			<stop  offset="1" style="stop-color:#FFA100"/>
		</linearGradient>
		<path fill="url(#SVGID_32_)" d="M1199.3,742.7c0,10.5-8.6,19.1-19.1,19.1c-10.5,0-19.1-8.5-19.1-19.1c0-10.5,8.6-19.1,19.1-19.1
			C1190.7,723.6,1199.3,732.2,1199.3,742.7z"/>
		<linearGradient id="SVGID_33_" gradientUnits="userSpaceOnUse" x1="323.216" y1="691.8121" x2="342.5381" y2="691.8121">
			<stop  offset="0" style="stop-color:#FFBB00"/>
			<stop  offset="1" style="stop-color:#FFA100"/>
		</linearGradient>
		<circle fill="url(#SVGID_33_)" cx="332.9" cy="691.8" r="9.7"/>
		<linearGradient id="SVGID_34_" gradientUnits="userSpaceOnUse" x1="89.5736" y1="522.2921" x2="136.7001" y2="522.2921">
			<stop  offset="0" style="stop-color:#FFBB00"/>
			<stop  offset="1" style="stop-color:#FFA100"/>
		</linearGradient>
		<path fill="url(#SVGID_34_)" d="M136.7,522.3c0,13-10.5,23.6-23.6,23.6c-13,0-23.6-10.5-23.6-23.6c0-13,10.5-23.6,23.6-23.6
			C126.2,498.7,136.7,509.3,136.7,522.3z"/>
		<linearGradient id="SVGID_35_" gradientUnits="userSpaceOnUse" x1="211.5744" y1="508.3899" x2="294.0355" y2="508.3899">
			<stop  offset="0" style="stop-color:#FFBB00"/>
			<stop  offset="1" style="stop-color:#FFA100"/>
		</linearGradient>
		<path fill="url(#SVGID_35_)" d="M294,508.4c0,22.8-18.5,41.2-41.2,41.2c-22.8,0-41.2-18.5-41.2-41.2s18.5-41.2,41.2-41.2
			C275.6,467.2,294,485.6,294,508.4z"/>
		<linearGradient id="SVGID_36_" gradientUnits="userSpaceOnUse" x1="1357.0668" y1="977.5043" x2="1376.3889" y2="977.5043">
			<stop  offset="0" style="stop-color:#FFBB00"/>
			<stop  offset="1" style="stop-color:#FFA100"/>
		</linearGradient>
		<path fill="url(#SVGID_36_)" d="M1376.4,977.5c0,5.3-4.3,9.7-9.7,9.7c-5.3,0-9.7-4.3-9.7-9.7c0-5.3,4.3-9.7,9.7-9.7
			C1372.1,967.8,1376.4,972.2,1376.4,977.5z"/>
		<linearGradient id="SVGID_37_" gradientUnits="userSpaceOnUse" x1="1047.7844" y1="450.4632" x2="1067.1073" y2="450.4632">
			<stop  offset="0" style="stop-color:#FFBB00"/>
			<stop  offset="1" style="stop-color:#FFA100"/>
		</linearGradient>
		<path fill="url(#SVGID_37_)" d="M1067.1,450.5c0,5.3-4.3,9.7-9.7,9.7c-5.3,0-9.7-4.3-9.7-9.7c0-5.3,4.3-9.7,9.7-9.7
			C1062.8,440.8,1067.1,445.1,1067.1,450.5z"/>
		<linearGradient id="SVGID_38_" gradientUnits="userSpaceOnUse" x1="296.9696" y1="1107.9137" x2="323.0444" y2="1107.9137">
			<stop  offset="0" style="stop-color:#FFBB00"/>
			<stop  offset="1" style="stop-color:#FFA100"/>
		</linearGradient>
		<path fill="url(#SVGID_38_)" d="M323,1107.9c0,7.2-5.8,13-13,13c-7.2,0-13-5.8-13-13c0-7.2,5.8-13,13-13
			C317.2,1094.9,323,1100.7,323,1107.9z"/>
		<linearGradient id="SVGID_39_" gradientUnits="userSpaceOnUse" x1="803.2189" y1="1169.8282" x2="847.3568" y2="1169.8282">
			<stop  offset="0" style="stop-color:#FFBB00"/>
			<stop  offset="1" style="stop-color:#FFA100"/>
		</linearGradient>
		<path fill="url(#SVGID_39_)" d="M847.4,1169.8c0,12.2-9.9,22.1-22.1,22.1c-12.2,0-22.1-9.9-22.1-22.1c0-12.2,9.9-22.1,22.1-22.1
			C837.5,1147.8,847.4,1157.6,847.4,1169.8z"/>
	</g>
	<linearGradient id="SVGID_40_" gradientUnits="userSpaceOnUse" x1="1035.9122" y1="548.6157" x2="1341.6979" y2="548.6157">
		<stop  offset="0" style="stop-color:#FFBB00"/>
		<stop  offset="1" style="stop-color:#FFA100"/>
	</linearGradient>
	<path fill="url(#SVGID_40_)" d="M1191.7,394.9c-66.9,3.9-123.1,56-131.8,122.4c-3.9,29.7,1.6,57.8,13.7,82
		c3.3,6.7,3.3,14.5-0.1,21.2l-36.9,73.1c-2.7,5.4,3,11.1,8.4,8.4l74.2-37.5c6.5-3.3,14.1-3.4,20.7-0.3c24.1,11.4,51.8,16.3,81,12.1
		c62.3-9,112.1-59.8,119.7-122.3C1351.5,464.9,1279.6,389.7,1191.7,394.9z"/>
	
		<linearGradient id="SVGID_41_" gradientUnits="userSpaceOnUse" x1="1138.3318" y1="531.6835" x2="1228.3821" y2="261.532" gradientTransform="matrix(0.9881 0.1539 -0.1539 0.9881 110.7981 -111.6265)">
		<stop  offset="0" style="stop-color:#EF543F"/>
		<stop  offset="1" style="stop-color:#F26F3C"/>
	</linearGradient>
	<path fill="url(#SVGID_41_)" d="M1088.6,496.6c0,0,60.7-18.3,110.3,38.9c0,0,38.9-103.7,153.2-112.6c0,0-104.6,39.8-153.2,190.2
		C1198.9,613.1,1170.3,522.5,1088.6,496.6z"/>
</g>
</svg>
