<?xml version="1.0" encoding="utf-8"?>
<!-- Generator: Adobe Illustrator 24.2.3, SVG Export Plug-In . SVG Version: 6.00 Build 0)  -->
<svg version="1.1" id="Capa_1" xmlns="http://www.w3.org/2000/svg" xmlns:xlink="http://www.w3.org/1999/xlink" x="0px" y="0px"
	 viewBox="0 0 1440 1440" enable-background="new 0 0 1440 1440" xml:space="preserve">
<g>
	<g>
		<g opacity="0.15">
			<linearGradient id="SVGID_1_" gradientUnits="userSpaceOnUse" x1="38.5559" y1="688.0606" x2="1389.4543" y2="688.0606">
				<stop  offset="0" style="stop-color:#FFBB00"/>
				<stop  offset="1" style="stop-color:#FFA100"/>
			</linearGradient>
			<path fill="url(#SVGID_1_)" d="M1108.1,150.3c-15-8.7-28.7-19.4-42.2-30.2c-66-52.6-181.2-89-256.6-105.6
				C733.9-2.2,654.5-6.7,579.9,13.1c-74.6,19.9-144,66.1-181.5,133.5c-54.6,98.1-37.2,227.2-103.2,318
				c-56,77-159.5,107.9-216.1,184.4c-36.2,49-49.2,114.4-34.5,173.5c25.4,101.6,122.2,169.5,165.3,265
				c24.4,54,30.7,115.1,58.3,167.5c48.1,91.2,163.4,141.1,262.8,113.6c69.8-19.3,125.9-70,188.7-106.1
				c64.1-36.8,136.7-58.8,210.5-63.5c67.9-4.4,137.5,5.4,203.2-12.4c88.3-23.8,156.8-94.2,207.3-170.5
				c22.3-33.7,42.5-70.3,47.5-110.4c19.2-155.9-189.2-268.6-175.3-425.1c2.3-25.9,10.9-50.9,15.3-76.5
				C1245.3,305.8,1194,200,1108.1,150.3z"/>
		</g>
		<g opacity="0.15">
			<linearGradient id="SVGID_2_" gradientUnits="userSpaceOnUse" x1="642.9626" y1="1342.3058" x2="1117.2183" y2="1342.3058">
				<stop  offset="0" style="stop-color:#FFBB00"/>
				<stop  offset="1" style="stop-color:#FFA100"/>
			</linearGradient>
			<path fill="url(#SVGID_2_)" d="M662.6,1368c33.7-23.7,67.4-47.3,101.1-71c20.5-14.4,41.2-28.9,64.6-37.7
				c19.3-7.3,40-10.4,60.6-12.4c58.8-5.5,118.4-1.4,175.9,12.2c10.3,2.4,20.6,5.2,29.4,11.1c21.1,14,28,43.8,19.8,67.7
				c-8.3,23.9-29.1,41.9-52.3,52c-23.2,10.1-48.8,13.2-74.1,14.9c-77.7,5.4-157.2-0.5-232.4,20.1c-24.2,6.6-48.3,16-73.3,14.9
				C656.7,1438.8,619.8,1409.6,662.6,1368"/>
		</g>
		<g opacity="0.15">
			<linearGradient id="SVGID_3_" gradientUnits="userSpaceOnUse" x1="110.2441" y1="365.9953" x2="330.0453" y2="365.9953">
				<stop  offset="0" style="stop-color:#FFBB00"/>
				<stop  offset="1" style="stop-color:#FFA100"/>
			</linearGradient>
			<path fill="url(#SVGID_3_)" d="M322.7,305.8c-11.3,36.8-22.8,73.7-40.6,107.8c-17.8,34.1-42.3,65.5-74.9,85.8
				c-24.1,15-57.6,22.7-79.6,4.7c-17.3-14.2-21-40.3-14.1-61.6c6.9-21.3,22.3-38.6,38.5-54.2c16.1-15.5,33.5-30.1,46-48.7
				c16.4-24.5,23.3-54.4,39.6-78.8c11.8-17.7,28.5-32.2,47.8-41.4c6.7-3.2,25.2-3.9,31.5,7.5C326.1,243.9,338,269.8,322.7,305.8"/>
		</g>
	</g>
	<g>
		<g>
			<linearGradient id="SVGID_4_" gradientUnits="userSpaceOnUse" x1="1066.8033" y1="1061.7386" x2="1329.8929" y2="1061.7386">
				<stop  offset="0" style="stop-color:#832929"/>
				<stop  offset="1" style="stop-color:#C63F34"/>
			</linearGradient>
			<circle fill="url(#SVGID_4_)" cx="1198.3" cy="1061.7" r="131.5"/>
			<linearGradient id="SVGID_5_" gradientUnits="userSpaceOnUse" x1="1120.2487" y1="1061.7386" x2="1276.4475" y2="1061.7386">
				<stop  offset="0" style="stop-color:#AB2929"/>
				<stop  offset="1" style="stop-color:#DB3F34"/>
			</linearGradient>
			<circle fill="url(#SVGID_5_)" cx="1198.3" cy="1061.7" r="78.1"/>
			<linearGradient id="SVGID_6_" gradientUnits="userSpaceOnUse" x1="1127.1141" y1="1061.7386" x2="1282.0353" y2="1061.7386">
				<stop  offset="0" style="stop-color:#C2363F"/>
				<stop  offset="1" style="stop-color:#F2793C"/>
			</linearGradient>
			<circle fill="url(#SVGID_6_)" cx="1198.3" cy="1061.7" r="66.4"/>
		</g>
		<g>
			<linearGradient id="SVGID_7_" gradientUnits="userSpaceOnUse" x1="433.3989" y1="1061.7386" x2="696.4879" y2="1061.7386">
				<stop  offset="0" style="stop-color:#832929"/>
				<stop  offset="1" style="stop-color:#C63F34"/>
			</linearGradient>
			<circle fill="url(#SVGID_7_)" cx="564.9" cy="1061.7" r="131.5"/>
			<linearGradient id="SVGID_8_" gradientUnits="userSpaceOnUse" x1="486.8444" y1="1061.7386" x2="643.0424" y2="1061.7386">
				<stop  offset="0" style="stop-color:#AB2929"/>
				<stop  offset="1" style="stop-color:#DB3F34"/>
			</linearGradient>
			<circle fill="url(#SVGID_8_)" cx="564.9" cy="1061.7" r="78.1"/>
			<linearGradient id="SVGID_9_" gradientUnits="userSpaceOnUse" x1="493.709" y1="1061.7386" x2="648.6311" y2="1061.7386">
				<stop  offset="0" style="stop-color:#C2363F"/>
				<stop  offset="1" style="stop-color:#F2793C"/>
			</linearGradient>
			<circle fill="url(#SVGID_9_)" cx="564.9" cy="1061.7" r="66.4"/>
		</g>
		<linearGradient id="SVGID_10_" gradientUnits="userSpaceOnUse" x1="1112.1022" y1="1070.9237" x2="1231.8799" y2="860.9431">
			<stop  offset="0" style="stop-color:#C2363F"/>
			<stop  offset="1" style="stop-color:#F2793C"/>
		</linearGradient>
		<path fill="url(#SVGID_10_)" d="M1185,854.6c0,0,98.9,4.3,110.1,98.8c2.1,21.4-82.7-14.7-154.2,21.6
			c-49.5,25.1-71.1,63.9-86.6,68.1s-38.3,0-38.3,0S1086.2,863.7,1185,854.6z"/>
		
			<linearGradient id="SVGID_11_" gradientUnits="userSpaceOnUse" x1="322.4622" y1="943.9617" x2="429.0111" y2="943.9617" gradientTransform="matrix(0.999 4.370000e-02 -4.370000e-02 0.999 30.9554 -38.6299)">
			<stop  offset="0" style="stop-color:#832929"/>
			<stop  offset="1" style="stop-color:#C63F34"/>
		</linearGradient>
		<path fill="url(#SVGID_11_)" d="M408.5,875.9l-28-1.2c-6.5-0.3-12.8,2.9-16.4,8.3l-49.7,74.4c-2.3,3.5,0,8.1,4.2,8.3l35.1,1.5
			L408.5,875.9z"/>
		<linearGradient id="SVGID_12_" gradientUnits="userSpaceOnUse" x1="269.3013" y1="833.0403" x2="1184.975" y2="833.0403">
			<stop  offset="0" style="stop-color:#D6423F"/>
			<stop  offset="1" style="stop-color:#F2793C"/>
		</linearGradient>
		<path fill="url(#SVGID_12_)" d="M1185,854.6c0,0-38.4,5.7-60.5,46.1c-22.1,40.3-108.1,181.6-142.6,195.9h-700
			c-9.4,0-15.4-10-11.1-18.3c24.1-46.3,89.1-167.1,133.6-212.9c55.5-57.2,99.2-81.6,224.5-73.2c125.4,8.4,197.7,34.5,209.4,42.9
			c11.8,8.4,6.7,31.9-12.7,58c-19.3,26-24.3,62.2-4.2,80.7c20.1,18.5,75.7,39.6,113.5,22.7c37.9-16.9,48-38.7,54.7-62.2
			c6.8-23.5-8.4-26.9-6.7-54.7c1.7-27.7,14.3-105.1-4.2-154.7c0,0-1.7-5.4-4.4-12.7c-4.9-13.5-13-33.4-20.1-39.4
			c-10.9-9.3-12.6,0.8-19.3-19.3c-6.7-20.1,28.6-29.4,45-42.4c16.4-13.1,22.3-30.8,42.4-37c11.1-3.5,22.2-4.5,30-4.5
			c6.6-0.1,12.8,2.8,16.9,7.8c11,13.5,30.9,42.6,24.4,68.2c-1.7,6.6-6.2,12.1-12,15.6l-20.8,12.5c0,0,0.6,0.9,1.7,2.5
			c8.2,11.9,45.1,64.5,79,97.8C1179.9,811.7,1185,854.6,1185,854.6z"/>
		<linearGradient id="SVGID_13_" gradientUnits="userSpaceOnUse" x1="651.8597" y1="822.0245" x2="650.7701" y2="664.0264">
			<stop  offset="0" style="stop-color:#972929"/>
			<stop  offset="1" style="stop-color:#C63F34"/>
		</linearGradient>
		<path fill="url(#SVGID_13_)" d="M838.2,835.1c-20.4,8.8-83.3-15.5-139-25.5c-55.7-10.1-104.8,11.5-171.6,0
			c-18.8-3.2-74.2-43.8-95.5-62.4c-3.7-3.2-1.4-9.3,3.5-9.3h228v-0.2c6.6,0.5,13,1.1,19.3,1.5c29.2,2.1,175.6,16,186.8,28.4
			C880.8,779.8,858.5,826.3,838.2,835.1z"/>
		<linearGradient id="SVGID_14_" gradientUnits="userSpaceOnUse" x1="683.6161" y1="809.553" x2="667.075" y2="722.9875">
			<stop  offset="0" style="stop-color:#812929"/>
			<stop  offset="1" style="stop-color:#EA3F34"/>
		</linearGradient>
		<path fill="url(#SVGID_14_)" d="M670.5,806.8c0,0-0.6-49.1-7-68.9c0,0,11.4-2.9,19.3,1.3c0,0,4.9,25.1,4.9,68.6
			C687.8,807.9,677.8,809,670.5,806.8z"/>
		<linearGradient id="SVGID_15_" gradientUnits="userSpaceOnUse" x1="933.9763" y1="640.8682" x2="1094.8669" y2="640.8682">
			<stop  offset="0" style="stop-color:#D6423F"/>
			<stop  offset="1" style="stop-color:#F2793C"/>
		</linearGradient>
		<path fill="url(#SVGID_15_)" d="M1093.6,645.5c-1.7,6.6-6.2,12.1-12,15.6l-20.8,12.5c0,0-74.2,36.5-86.6,38.6
			c-4.9-13.5-13-33.4-20.1-39.4c-10.9-9.3-12.6,0.8-19.3-19.3c-6.7-20.1,28.6-29.4,45-42.4c16.4-13.1,22.3-30.8,42.4-37
			c11.1-3.5,22.2-4.5,30-4.5c6.6-0.1,12.8,2.8,16.9,7.8C1080.1,590.8,1100.1,620,1093.6,645.5z"/>
		<linearGradient id="SVGID_16_" gradientUnits="userSpaceOnUse" x1="930.7618" y1="1049.2146" x2="979.0535" y2="689.6264">
			<stop  offset="0" style="stop-color:#D6423F"/>
			<stop  offset="1" style="stop-color:#FF922C"/>
		</linearGradient>
		<path fill="url(#SVGID_16_)" d="M1185,854.6c0,0-38.4,5.7-60.5,46.1c-22.1,40.3-108.1,181.6-142.6,195.9H696.3l4-22.9h267.5
			c30-12.3,118-166,120.4-206.1c2.1-40.1-70.8-140.5-65.3-157.2c5.6-16.7,39.6-34.2,39.6-34.2c8.2,11.9,45.1,64.5,79,97.8
			C1179.9,811.7,1185,854.6,1185,854.6z"/>
		<linearGradient id="SVGID_17_" gradientUnits="userSpaceOnUse" x1="315.0724" y1="986.9032" x2="761.2114" y2="986.9032">
			<stop  offset="0" style="stop-color:#C4293F"/>
			<stop  offset="1" style="stop-color:#F2793C"/>
		</linearGradient>
		<path fill="url(#SVGID_17_)" d="M325.7,1096.6c-8.9,0-13.8-10.2-8.3-17.2c21.3-27.3,70.1-84,151.1-148.4
			c107.8-85.6,263.4-63.4,287.5,26.7c23.4,87.3-39.7,138.8-39.7,138.8H325.7z"/>
		<linearGradient id="SVGID_18_" gradientUnits="userSpaceOnUse" x1="909.4174" y1="654.3913" x2="974.1031" y2="654.3913">
			<stop  offset="0" style="stop-color:#972929"/>
			<stop  offset="1" style="stop-color:#C63F34"/>
		</linearGradient>
		<path fill="url(#SVGID_18_)" d="M973.1,641.6c-2.6-7-9.1-11.1-14.6-9.1l-49,22l8.1,22.3l50.2-18.9
			C973.3,655.9,975.6,648.6,973.1,641.6z"/>
		
			<linearGradient id="SVGID_19_" gradientUnits="userSpaceOnUse" x1="908.9757" y1="647.8346" x2="927.5728" y2="647.8346" gradientTransform="matrix(0.9393 -0.3431 0.3431 0.9393 -171.3188 372.1989)">
			<stop  offset="0" style="stop-color:#972929"/>
			<stop  offset="1" style="stop-color:#C63F34"/>
		</linearGradient>
		<path fill="url(#SVGID_19_)" d="M922.2,662.5c2.2,6.2,0.2,12.6-4.7,14.3s-10.6-1.8-12.8-8c-2.2-6.2-0.2-12.6,4.7-14.3
			C914.2,652.7,920,656.3,922.2,662.5z"/>
		<linearGradient id="SVGID_20_" gradientUnits="userSpaceOnUse" x1="551.2306" y1="552.2192" x2="551.2306" y2="735.2024">
			<stop  offset="0" style="stop-color:#FFBB00"/>
			<stop  offset="1" style="stop-color:#FFA100"/>
		</linearGradient>
		<rect x="439" y="552.2" fill="url(#SVGID_20_)" width="224.5" height="185.7"/>
		<linearGradient id="SVGID_21_" gradientUnits="userSpaceOnUse" x1="550.9553" y1="526.2993" x2="550.9553" y2="557.7041">
			<stop  offset="0" style="stop-color:#FFBB00"/>
			<stop  offset="1" style="stop-color:#FFA100"/>
		</linearGradient>
		<rect x="435.1" y="526.3" fill="url(#SVGID_21_)" width="231.8" height="31.9"/>
		<linearGradient id="SVGID_22_" gradientUnits="userSpaceOnUse" x1="461.8008" y1="524.5347" x2="461.8008" y2="734.7983">
			<stop  offset="0" style="stop-color:#D6423F"/>
			<stop  offset="1" style="stop-color:#F2793C"/>
		</linearGradient>
		<rect x="457" y="524.5" fill="url(#SVGID_22_)" width="9.7" height="213.4"/>
		<linearGradient id="SVGID_23_" gradientUnits="userSpaceOnUse" x1="638.4376" y1="524.5347" x2="638.4376" y2="734.7983">
			<stop  offset="0" style="stop-color:#D6423F"/>
			<stop  offset="1" style="stop-color:#F2793C"/>
		</linearGradient>
		<rect x="633.6" y="524.5" fill="url(#SVGID_23_)" width="9.7" height="213.4"/>
		<linearGradient id="SVGID_24_" gradientUnits="userSpaceOnUse" x1="555.088" y1="671.7318" x2="555.088" y2="677.7715">
			<stop  offset="0" style="stop-color:#FFBB00"/>
			<stop  offset="1" style="stop-color:#FFA100"/>
		</linearGradient>
		<path fill="url(#SVGID_24_)" d="M623.6,677.9H486.6c-1.7,0-3.1-1.4-3.1-3.1l0,0c0-1.7,1.4-3.1,3.1-3.1h137.1
			c1.7,0,3.1,1.4,3.1,3.1l0,0C626.7,676.5,625.3,677.9,623.6,677.9z"/>
		<linearGradient id="SVGID_25_" gradientUnits="userSpaceOnUse" x1="555.088" y1="590.0865" x2="555.088" y2="670.5391">
			<stop  offset="0" style="stop-color:#FFBB00"/>
			<stop  offset="1" style="stop-color:#FFA100"/>
		</linearGradient>
		<path fill="url(#SVGID_25_)" d="M558.1,596.8v-3.7c0-1.7-1.4-3-3-3c-1.7,0-3,1.4-3,3v3.7c-33.9,1.6-60.9,29.5-60.9,63.7v11.1H619
			v-11.1C619,626.3,592,598.4,558.1,596.8z"/>
		<g opacity="0.5">
			<linearGradient id="SVGID_26_" gradientUnits="userSpaceOnUse" x1="262.0275" y1="877.2081" x2="262.0275" y2="891.0815">
				<stop  offset="0" style="stop-color:#972929"/>
				<stop  offset="1" style="stop-color:#C63F34"/>
			</linearGradient>
			<polygon fill="url(#SVGID_26_)" points="340,877.2 330.7,891.1 184.1,884.3 			"/>
			<linearGradient id="SVGID_27_" gradientUnits="userSpaceOnUse" x1="243.9825" y1="906.0115" x2="243.9825" y2="919.6278">
				<stop  offset="0" style="stop-color:#972929"/>
				<stop  offset="1" style="stop-color:#C63F34"/>
			</linearGradient>
			<polygon fill="url(#SVGID_27_)" points="320.7,906 311.6,919.6 167.3,913 			"/>
			<linearGradient id="SVGID_28_" gradientUnits="userSpaceOnUse" x1="223.8803" y1="937.5579" x2="223.8803" y2="951.0886">
				<stop  offset="0" style="stop-color:#972929"/>
				<stop  offset="1" style="stop-color:#C63F34"/>
			</linearGradient>
			<polygon fill="url(#SVGID_28_)" points="299.7,937.6 290.6,951.1 148.1,944.6 			"/>
		</g>
	</g>
	<g>
		<linearGradient id="SVGID_29_" gradientUnits="userSpaceOnUse" x1="1143.6832" y1="90.035" x2="1143.6832" y2="413.0114">
			<stop  offset="0" style="stop-color:#972929"/>
			<stop  offset="1" style="stop-color:#C63F34"/>
		</linearGradient>
		<circle fill="url(#SVGID_29_)" cx="1143.7" cy="238.5" r="138.4"/>
		<linearGradient id="SVGID_30_" gradientUnits="userSpaceOnUse" x1="1018.9532" y1="238.5421" x2="1268.4133" y2="238.5421">
			<stop  offset="0" style="stop-color:#FFBB00"/>
			<stop  offset="1" style="stop-color:#FFA100"/>
		</linearGradient>
		<circle opacity="0.5" fill="url(#SVGID_30_)" cx="1143.7" cy="238.5" r="124.7"/>
		<linearGradient id="SVGID_31_" gradientUnits="userSpaceOnUse" x1="1024.5006" y1="238.5417" x2="1262.8658" y2="238.5417">
			<stop  offset="0" style="stop-color:#FFBB00"/>
			<stop  offset="1" style="stop-color:#FFA100"/>
		</linearGradient>
		<circle fill="url(#SVGID_31_)" cx="1143.7" cy="238.5" r="119.2"/>
		<linearGradient id="SVGID_32_" gradientUnits="userSpaceOnUse" x1="1113.41" y1="206.6691" x2="1189.9574" y2="206.6691">
			<stop  offset="0" style="stop-color:#972929"/>
			<stop  offset="1" style="stop-color:#C63F34"/>
		</linearGradient>
		<polyline fill="none" stroke="url(#SVGID_32_)" stroke-width="1.5837" stroke-linecap="round" stroke-miterlimit="10" points="
			1114.2,148.4 1143.7,238.5 1189.2,264.9 		"/>
		<linearGradient id="SVGID_33_" gradientUnits="userSpaceOnUse" x1="1131.8389" y1="238.5421" x2="1155.5276" y2="238.5421">
			<stop  offset="0" style="stop-color:#972929"/>
			<stop  offset="1" style="stop-color:#C63F34"/>
		</linearGradient>
		<path fill="url(#SVGID_33_)" d="M1155.5,238.5c0,6.5-5.3,11.8-11.8,11.8c-6.5,0-11.8-5.3-11.8-11.8c0-6.5,5.3-11.8,11.8-11.8
			C1150.2,226.7,1155.5,232,1155.5,238.5z"/>
	</g>
	<g>
		
			<linearGradient id="SVGID_34_" gradientUnits="userSpaceOnUse" x1="1273.9811" y1="365.9954" x2="1548.5663" y2="365.9954" gradientTransform="matrix(-1 0 0 1 1802.0219 0)">
			<stop  offset="0" style="stop-color:#FFBB00"/>
			<stop  offset="1" style="stop-color:#FFA100"/>
		</linearGradient>
		<path fill="url(#SVGID_34_)" d="M388.2,227.9c60.1,3.5,110.5,50.3,118.4,109.9c3.5,26.7-1.4,51.9-12.3,73.6c-3,6-3,13,0.1,19
			l33.1,65.7c2.4,4.8-2.7,9.9-7.5,7.5L453.2,470c-5.8-2.9-12.7-3.1-18.5-0.3c-21.6,10.2-46.5,14.6-72.7,10.8
			c-56-8.1-100.7-53.7-107.5-109.8C244.7,290.9,309.2,223.3,388.2,227.9z"/>
		<g>
			<g>
				
					<linearGradient id="SVGID_35_" gradientUnits="userSpaceOnUse" x1="387.0532" y1="478.1184" x2="387.0532" y2="453.7675" gradientTransform="matrix(1 -2.000000e-04 2.000000e-04 1 -6.0485 -62.5132)">
					<stop  offset="0" style="stop-color:#EF543F"/>
					<stop  offset="1" style="stop-color:#F26F3C"/>
				</linearGradient>
				<path fill="url(#SVGID_35_)" d="M453.4,379.2l-72.3,1.7l-72.3-1.7c0,0-11.8,12.5-3.6,26c8.2,13.5,75.9,13.2,75.9,13.2
					s67.7,0.3,75.9-13.2C465.2,391.6,453.4,379.2,453.4,379.2z"/>
				
					<linearGradient id="SVGID_36_" gradientUnits="userSpaceOnUse" x1="385.7687" y1="439.1607" x2="385.7687" y2="453.0057" gradientTransform="matrix(1 -2.000000e-04 2.000000e-04 1 -6.0485 -62.5132)">
					<stop  offset="0" style="stop-color:#008B42"/>
					<stop  offset="0.4892" style="stop-color:#3FB342"/>
					<stop  offset="1" style="stop-color:#80C242"/>
				</linearGradient>
				<path fill="url(#SVGID_36_)" d="M310.3,367.5c0.4-0.3-11.5,14.2-9.3,19.2c4.2,4.9,12.9-8.7,14.3-2.3c0.5,7.2,9.3,0.8,14.4,2.9
					c5.1,2.1,10.6-2.8,18.2-3c7.6-0.2,7.8,4.1,14.5,5.2c6.8,1.1,4.4-2.9,8.7-3.8c4.3-0.9,8.8,3,11.5,3.3c2.7,0.3,4.8-5.5,9.1-4.7
					c4.7,0.9,4.7,6.9,9,7.2c4.3,0.3,7.6-8.3,11.2-8s7.7,6,12.8,5.8c5.1-0.2,3.3-6.1,9.3-4.7c5.9,1.4-1.9-7.9,13.1-0.3
					c7.9,4,13.8,1.4,11-1.9c-2-2.3,0-10.3-5.5-15.9C447.2,361,310.3,367.5,310.3,367.5z"/>
				
					<linearGradient id="SVGID_37_" gradientUnits="userSpaceOnUse" x1="387.6342" y1="431.3134" x2="387.6342" y2="437.9725" gradientTransform="matrix(1 -2.000000e-04 2.000000e-04 1 -6.0485 -62.5132)">
					<stop  offset="0" style="stop-color:#972929"/>
					<stop  offset="1" style="stop-color:#C63F34"/>
				</linearGradient>
				<path fill="url(#SVGID_37_)" d="M457.4,376l-151.5,0c-0.4,0-0.8-0.3-0.8-0.8v-11.8c0-0.4,0.3-0.8,0.8-0.8l151.5,0
					c0.4,0,0.8,0.3,0.8,0.8v11.8C458.2,375.7,457.8,376,457.4,376z"/>
				
					<linearGradient id="SVGID_38_" gradientUnits="userSpaceOnUse" x1="387.271" y1="425.1318" x2="387.271" y2="433.9046" gradientTransform="matrix(1 -2.000000e-04 2.000000e-04 1 -6.0485 -62.5132)">
					<stop  offset="0" style="stop-color:#F57E29"/>
					<stop  offset="1" style="stop-color:#FAAC33"/>
				</linearGradient>
				<path fill="url(#SVGID_38_)" d="M456.6,358.9l-75.3,0l0,0l-75.3,0c0,0-2.5,2.2-0.9,4.7c2.8,4.5,76.1,9.6,76.1,9.6
					c0,0,73.3-5.2,76.1-9.7C459,361.1,456.6,358.9,456.6,358.9z"/>
				
					<linearGradient id="SVGID_39_" gradientUnits="userSpaceOnUse" x1="387.634" y1="417.5032" x2="387.634" y2="424.1622" gradientTransform="matrix(1 -2.000000e-04 2.000000e-04 1 -6.0485 -62.5132)">
					<stop  offset="0" style="stop-color:#972929"/>
					<stop  offset="1" style="stop-color:#C63F34"/>
				</linearGradient>
				<path fill="url(#SVGID_39_)" d="M457.4,362.2l-151.5,0c-0.4,0-0.8-0.3-0.8-0.8v-11.8c0-0.4,0.3-0.8,0.8-0.8l151.5,0
					c0.4,0,0.8,0.3,0.8,0.8v11.8C458.2,361.9,457.8,362.2,457.4,362.2z"/>
				
					<linearGradient id="SVGID_40_" gradientUnits="userSpaceOnUse" x1="387.271" y1="409.4611" x2="387.271" y2="417.377" gradientTransform="matrix(1 -2.000000e-04 2.000000e-04 1 -6.0485 -62.5132)">
					<stop  offset="0" style="stop-color:#A62938"/>
					<stop  offset="1" style="stop-color:#ED2938"/>
				</linearGradient>
				<path fill="url(#SVGID_40_)" d="M453.9,339.8l-72.6,2l-72.6-2c0,0-7.9,10.5-2.2,12.5c5.7,2.1,56.1,3.3,74.8,3.3
					c18.7,0,69.1-1.3,74.8-3.3C461.8,350.2,453.9,339.8,453.9,339.8z"/>
				
					<linearGradient id="SVGID_41_" gradientUnits="userSpaceOnUse" x1="387.0522" y1="396.9376" x2="387.0522" y2="412.7521" gradientTransform="matrix(1 -2.000000e-04 2.000000e-04 1 -6.0485 -62.5132)">
					<stop  offset="0" style="stop-color:#008B42"/>
					<stop  offset="0.4892" style="stop-color:#3FB342"/>
					<stop  offset="1" style="stop-color:#80C242"/>
				</linearGradient>
				<path fill="url(#SVGID_41_)" d="M307.1,321.8c0.4-0.3-4.9,9.1-4.5,13.8c0.4,4.3-3.8,6-1.7,11.1c4.2,4.9,10.9-1.6,14.4-2.3
					c5-1.1,6.9,0.2,12,2.4c5.1,2.1,13.1-2.2,20.7-2.4c7.6-0.2,7.8,4.1,14.5,5.2c6.8,1.1,10.2-3,14.5-3.9c4.3-0.9,7.4,2,10,2.3
					c2.7,0.3,3.1-3.8,4.7-3.6c1.6,0.2,4.7,6.9,9,7.2c4.3,0.3,7.6-8.3,11.2-8c3.7,0.3,2.3,2.9,7.4,2.7c5.1-0.2,4.7-4.1,10.6-2.7
					c5.9,1.4,9.4-3.6,17.2,0.7c7.8,4.3,11.6,3.9,12.4,0.9c0.8-3,1.4-5.4,2-6.7c0.6-1.3-0.1-9.6-5.7-15.2
					C450.4,317.8,307.1,321.8,307.1,321.8z"/>
				
					<linearGradient id="SVGID_42_" gradientUnits="userSpaceOnUse" x1="387.2705" y1="398.0832" x2="387.2705" y2="354.2424" gradientTransform="matrix(1 -2.000000e-04 2.000000e-04 1 -6.0485 -62.5132)">
					<stop  offset="0" style="stop-color:#EF543F"/>
					<stop  offset="1" style="stop-color:#F26F3C"/>
				</linearGradient>
				<path fill="url(#SVGID_42_)" d="M461.2,322.2c-4.7-11-14.6-19.6-25.9-26.2c-33.7-19.7-74.3-19.7-108,0
					c-11.3,6.6-21.2,15.2-25.9,26.2c-1.1,2.7,0.1,5.9,2.7,6.8c7.1,2.6,34.7,8.9,77.3,8c42.5,0.8,70.2-5.4,77.2-8.1
					C461.1,328.1,462.3,324.9,461.2,322.2z"/>
				<g>
					<g>
						<path fill="#F89F5A" d="M427.3,296.5c-0.4-0.3-3.7,1.6-2.1,2.9C427.1,300.5,427.8,296.8,427.3,296.5z"/>
						<path fill="#F89F5A" d="M386.7,289.1c-0.4-0.3-3.7,1.6-2.1,2.9C386.4,293.1,387.1,289.4,386.7,289.1z"/>
						<path fill="#F89F5A" d="M357.8,289.3c-0.3-0.4-3.9,0.8-2.6,2.5C356.7,293.2,358.1,289.7,357.8,289.3z"/>
						<path fill="#F89F5A" d="M361.4,297.6c0.2,0.5,4,0.4,3.2-1.5C363.6,294.3,361.2,297.2,361.4,297.6z"/>
						<path fill="#F89F5A" d="M364.8,287c0.2,0.5,4,0.4,3.2-1.5C367,283.7,364.6,286.6,364.8,287z"/>
						<path fill="#F89F5A" d="M382.5,298.5c0.2,0.5,4,0.4,3.2-1.5C384.7,295.2,382.3,298.1,382.5,298.5z"/>
						<path fill="#F89F5A" d="M399.5,289c0.2,0.5,4,0.4,3.2-1.5C401.7,285.7,399.3,288.6,399.5,289z"/>
						<path fill="#F89F5A" d="M370.8,291.9c-0.4,0.3,0,4,1.9,3C374.4,293.7,371.2,291.6,370.8,291.9z"/>
						<path fill="#F89F5A" d="M374.9,284.9c-0.4,0.3,0,4,1.9,3C378.5,286.7,375.3,284.7,374.9,284.9z"/>
						<path fill="#F89F5A" d="M347,290.3c-0.4,0.3,0,4,1.9,3C350.6,292.1,347.4,290,347,290.3z"/>
						<path fill="#F89F5A" d="M334.9,294.4c-0.4,0.3,0,4,1.9,3C338.5,296.2,335.3,294.2,334.9,294.4z"/>
						<path fill="#F89F5A" d="M390.2,284.9c-0.4,0.3,0,4,1.9,3C393.8,286.7,390.7,284.6,390.2,284.9z"/>
						<path fill="#F89F5A" d="M407.5,290.3c-0.4,0.3,0,4,1.9,3C411.1,292,408,290,407.5,290.3z"/>
						<path fill="#F89F5A" d="M399.4,296.4c-0.4-0.3-3.7,1.6-2.1,2.9C399.1,300.4,399.8,296.7,399.4,296.4z"/>
						<path fill="#F89F5A" d="M418.5,291.9c-0.4-0.3-3.7,1.6-2.1,2.9C418.2,295.9,418.9,292.2,418.5,291.9z"/>
					</g>
				</g>
			</g>
		</g>
	</g>
	<g opacity="0.5">
		<linearGradient id="SVGID_43_" gradientUnits="userSpaceOnUse" x1="891.5148" y1="396.716" x2="989.7815" y2="396.716">
			<stop  offset="0" style="stop-color:#FFBB00"/>
			<stop  offset="1" style="stop-color:#FFA100"/>
		</linearGradient>
		<path fill="url(#SVGID_43_)" d="M989.8,396.7c0,27.1-22,49.1-49.1,49.1c-27.1,0-49.1-22-49.1-49.1c0-27.1,22-49.1,49.1-49.1
			C967.8,347.6,989.8,369.6,989.8,396.7z"/>
		<linearGradient id="SVGID_44_" gradientUnits="userSpaceOnUse" x1="1239.5133" y1="772.5974" x2="1324.701" y2="772.5974">
			<stop  offset="0" style="stop-color:#FFBB00"/>
			<stop  offset="1" style="stop-color:#FFA100"/>
		</linearGradient>
		<path fill="url(#SVGID_44_)" d="M1324.7,772.6c0,23.5-19.1,42.6-42.6,42.6c-23.5,0-42.6-19.1-42.6-42.6
			c0-23.5,19.1-42.6,42.6-42.6C1305.6,730,1324.7,749.1,1324.7,772.6z"/>
		<linearGradient id="SVGID_45_" gradientUnits="userSpaceOnUse" x1="799.8321" y1="169.7181" x2="834.1216" y2="169.7181">
			<stop  offset="0" style="stop-color:#FFBB00"/>
			<stop  offset="1" style="stop-color:#FFA100"/>
		</linearGradient>
		<path fill="url(#SVGID_45_)" d="M834.1,169.7c0,9.5-7.7,17.1-17.1,17.1c-9.5,0-17.1-7.7-17.1-17.1c0-9.5,7.7-17.1,17.1-17.1
			C826.4,152.6,834.1,160.2,834.1,169.7z"/>
		<linearGradient id="SVGID_46_" gradientUnits="userSpaceOnUse" x1="111.1497" y1="779.5967" x2="185.0508" y2="779.5967">
			<stop  offset="0" style="stop-color:#FFBB00"/>
			<stop  offset="1" style="stop-color:#FFA100"/>
		</linearGradient>
		<path fill="url(#SVGID_46_)" d="M185.1,779.6c0,20.4-16.5,37-37,37c-20.4,0-37-16.5-37-37c0-20.4,16.5-37,37-37
			C168.5,742.6,185.1,759.2,185.1,779.6z"/>
		<linearGradient id="SVGID_47_" gradientUnits="userSpaceOnUse" x1="518.137" y1="148.4133" x2="592.0389" y2="148.4133">
			<stop  offset="0" style="stop-color:#FFBB00"/>
			<stop  offset="1" style="stop-color:#FFA100"/>
		</linearGradient>
		<path fill="url(#SVGID_47_)" d="M592,148.4c0,20.4-16.5,37-37,37c-20.4,0-37-16.5-37-37c0-20.4,16.5-37,37-37
			C575.5,111.5,592,128,592,148.4z"/>
		<linearGradient id="SVGID_48_" gradientUnits="userSpaceOnUse" x1="1179.3955" y1="645.0666" x2="1217.3007" y2="645.0666">
			<stop  offset="0" style="stop-color:#FFBB00"/>
			<stop  offset="1" style="stop-color:#FFA100"/>
		</linearGradient>
		<path fill="url(#SVGID_48_)" d="M1217.3,645.1c0,10.5-8.5,19-19,19s-19-8.5-19-19s8.5-19,19-19S1217.3,634.6,1217.3,645.1z"/>
		<linearGradient id="SVGID_49_" gradientUnits="userSpaceOnUse" x1="281.1226" y1="715.134" x2="300.2988" y2="715.134">
			<stop  offset="0" style="stop-color:#FFBB00"/>
			<stop  offset="1" style="stop-color:#FFA100"/>
		</linearGradient>
		<path fill="url(#SVGID_49_)" d="M300.3,715.1c0,5.3-4.3,9.6-9.6,9.6c-5.3,0-9.6-4.3-9.6-9.6s4.3-9.6,9.6-9.6
			C296,705.5,300.3,709.8,300.3,715.1z"/>
		<linearGradient id="SVGID_50_" gradientUnits="userSpaceOnUse" x1="267.3266" y1="558.1693" x2="314.0956" y2="558.1693">
			<stop  offset="0" style="stop-color:#FFBB00"/>
			<stop  offset="1" style="stop-color:#FFA100"/>
		</linearGradient>
		<circle fill="url(#SVGID_50_)" cx="290.7" cy="558.2" r="23.4"/>
		<linearGradient id="SVGID_51_" gradientUnits="userSpaceOnUse" x1="641.2468" y1="396.716" x2="692.4653" y2="396.716">
			<stop  offset="0" style="stop-color:#FFBB00"/>
			<stop  offset="1" style="stop-color:#FFA100"/>
		</linearGradient>
		<path fill="url(#SVGID_51_)" d="M692.5,396.7c0,14.1-11.5,25.6-25.6,25.6c-14.1,0-25.6-11.5-25.6-25.6c0-14.1,11.5-25.6,25.6-25.6
			C681,371.1,692.5,382.6,692.5,396.7z"/>
		<linearGradient id="SVGID_52_" gradientUnits="userSpaceOnUse" x1="1340.1313" y1="903.0944" x2="1359.3075" y2="903.0944">
			<stop  offset="0" style="stop-color:#FFBB00"/>
			<stop  offset="1" style="stop-color:#FFA100"/>
		</linearGradient>
		<path fill="url(#SVGID_52_)" d="M1359.3,903.1c0,5.3-4.3,9.6-9.6,9.6s-9.6-4.3-9.6-9.6s4.3-9.6,9.6-9.6S1359.3,897.8,1359.3,903.1
			z"/>
		<linearGradient id="SVGID_53_" gradientUnits="userSpaceOnUse" x1="863.025" y1="558.1697" x2="882.2012" y2="558.1697">
			<stop  offset="0" style="stop-color:#FFBB00"/>
			<stop  offset="1" style="stop-color:#FFA100"/>
		</linearGradient>
		<path fill="url(#SVGID_53_)" d="M882.2,558.2c0,5.3-4.3,9.6-9.6,9.6s-9.6-4.3-9.6-9.6s4.3-9.6,9.6-9.6S882.2,552.9,882.2,558.2z"
			/>
		<linearGradient id="SVGID_54_" gradientUnits="userSpaceOnUse" x1="255.0757" y1="1128.0764" x2="280.9528" y2="1128.0764">
			<stop  offset="0" style="stop-color:#FFBB00"/>
			<stop  offset="1" style="stop-color:#FFA100"/>
		</linearGradient>
		<circle fill="url(#SVGID_54_)" cx="268" cy="1128.1" r="12.9"/>
		<linearGradient id="SVGID_55_" gradientUnits="userSpaceOnUse" x1="535.1358" y1="1281.675" x2="578.9382" y2="1281.675">
			<stop  offset="0" style="stop-color:#FFBB00"/>
			<stop  offset="1" style="stop-color:#FFA100"/>
		</linearGradient>
		<path fill="url(#SVGID_55_)" d="M578.9,1281.7c0,12.1-9.8,21.9-21.9,21.9c-12.1,0-21.9-9.8-21.9-21.9c0-12.1,9.8-21.9,21.9-21.9
			C569.1,1259.8,578.9,1269.6,578.9,1281.7z"/>
	</g>
</g>
</svg>
