<?xml version="1.0" encoding="utf-8"?>
<!-- Generator: Adobe Illustrator 24.2.3, SVG Export Plug-In . SVG Version: 6.00 Build 0)  -->
<svg version="1.1" id="Capa_1" xmlns="http://www.w3.org/2000/svg" xmlns:xlink="http://www.w3.org/1999/xlink" x="0px" y="0px"
	 viewBox="0 0 600 85.2" enable-background="new 0 0 600 85.2" xml:space="preserve">
<path fill-rule="evenodd" clip-rule="evenodd" fill="#E92E29" stroke="#E92E29" stroke-width="0.5669" stroke-miterlimit="22.9256" d="
	M190.8,71.7h-10.4v-34L162,70c-0.4,0.8-1.1,1.4-1.9,1.9c-0.8,0.4-1.7,0.6-2.6,0.6c-0.9,0-1.8-0.2-2.5-0.6c-0.8-0.4-1.4-1-1.8-1.9
	l-18.4-32.3v34h-10.4V19c0-1.2,0.4-2.3,1.1-3.2c0.7-0.9,1.6-1.6,2.8-1.9c0.6-0.1,1.1-0.2,1.7-0.1c0.6,0,1.1,0.1,1.6,0.4
	c0.5,0.2,1,0.5,1.4,0.8c0.4,0.4,0.8,0.8,1.1,1.3l23.6,40.9l23.6-40.9c0.6-1,1.5-1.7,2.5-2.1c1.1-0.4,2.2-0.5,3.4-0.2
	c1.1,0.3,2,0.9,2.7,1.9c0.7,0.9,1.1,2,1.1,3.2V71.7L190.8,71.7z M262.7,48.6c0,3.5-0.6,6.7-1.8,9.6c-1.2,2.9-2.9,5.4-5,7.6
	c-2.1,2.1-4.6,3.8-7.6,5c-2.9,1.2-6.1,1.8-9.5,1.8h-14c-3.4,0-6.6-0.6-9.5-1.8c-2.9-1.2-5.4-2.8-7.6-5c-2.1-2.1-3.8-4.6-5-7.6
	c-1.2-2.9-1.8-6.1-1.8-9.6V37.7c0-3.5,0.6-6.6,1.8-9.6c1.2-2.9,2.9-5.4,5-7.6c2.1-2.1,4.6-3.8,7.6-5c2.9-1.2,6.1-1.8,9.5-1.8h14
	c3.4,0,6.6,0.6,9.5,1.8c2.9,1.2,5.4,2.9,7.6,5c2.1,2.1,3.8,4.6,5,7.6c1.2,2.9,1.8,6.1,1.8,9.6V48.6L262.7,48.6z M252.4,37.7
	c0-2-0.3-3.9-1-5.6c-0.7-1.7-1.6-3.1-2.7-4.3c-1.2-1.2-2.6-2.1-4.3-2.7c-1.7-0.7-3.5-1-5.5-1h-14c-2,0-3.8,0.3-5.5,1
	c-1.7,0.7-3.1,1.6-4.3,2.7c-1.2,1.2-2.1,2.6-2.8,4.3c-0.7,1.7-1,3.5-1,5.6v10.9c0,2,0.3,3.9,1,5.5c0.7,1.7,1.6,3.1,2.8,4.3
	c1.2,1.2,2.6,2.1,4.3,2.7c1.7,0.7,3.5,1,5.5,1h13.9c2,0,3.8-0.3,5.5-1c1.7-0.7,3.1-1.6,4.3-2.7c1.2-1.2,2.1-2.6,2.8-4.3
	c0.7-1.7,1-3.5,1-5.5V37.7L252.4,37.7z M321.1,17.7c0.4,0.9,0.5,1.9,0.4,2.9c-0.1,1-0.6,1.9-1.3,2.6l-34.1,38.1h35v10.4h-46.6
	c-1,0-1.9-0.3-2.8-0.9c-0.9-0.6-1.5-1.3-1.9-2.3c-0.4-0.9-0.6-1.9-0.4-2.9c0.2-1,0.6-1.9,1.3-2.6L304.7,25h-35.1V14.6h46.7
	c1,0,1.9,0.3,2.8,0.9C320.1,16,320.7,16.8,321.1,17.7L321.1,17.7z M389.7,48.6c0,3.5-0.6,6.7-1.8,9.6c-1.2,2.9-2.9,5.4-5,7.6
	c-2.1,2.1-4.6,3.8-7.6,5c-2.9,1.2-6.1,1.8-9.5,1.8h-14c-3.4,0-6.6-0.6-9.5-1.8c-2.9-1.2-5.4-2.8-7.6-5c-2.1-2.1-3.8-4.6-5-7.6
	c-1.2-2.9-1.8-6.1-1.8-9.6V37.7c0-3.5,0.6-6.6,1.8-9.6c1.2-2.9,2.9-5.4,5-7.6c2.1-2.1,4.6-3.8,7.6-5c2.9-1.2,6.1-1.8,9.5-1.8h14
	c3.4,0,6.6,0.6,9.5,1.8c2.9,1.2,5.4,2.9,7.6,5c2.1,2.1,3.8,4.6,5,7.6c1.2,2.9,1.8,6.1,1.8,9.6V48.6L389.7,48.6z M379.4,37.7
	c0-2-0.3-3.9-1-5.6c-0.7-1.7-1.6-3.1-2.7-4.3c-1.2-1.2-2.6-2.1-4.3-2.7c-1.7-0.7-3.5-1-5.5-1h-14c-2,0-3.8,0.3-5.5,1
	c-1.7,0.7-3.1,1.6-4.3,2.7c-1.2,1.2-2.1,2.6-2.8,4.3c-0.7,1.7-1,3.5-1,5.6v10.9c0,2,0.3,3.9,1,5.5c0.7,1.7,1.6,3.1,2.8,4.3
	c1.2,1.2,2.6,2.1,4.3,2.7c1.7,0.7,3.5,1,5.5,1h13.9c2,0,3.8-0.3,5.5-1c1.7-0.7,3.1-1.6,4.3-2.7c1.2-1.2,2.1-2.6,2.8-4.3
	c0.7-1.7,1-3.5,1-5.5V37.7L379.4,37.7z M455.9,71.7h-10.4v-14h-36.4v14h-10.4V43.1c0-4.2,0.7-8,2.1-11.5c1.4-3.5,3.4-6.5,6-9
	c2.5-2.5,5.6-4.5,9-5.9c3.5-1.4,7.3-2.1,11.4-2.1h23.3c0.7,0,1.4,0.1,2,0.4c0.6,0.3,1.2,0.6,1.7,1.1c0.5,0.5,0.9,1,1.1,1.7
	c0.3,0.6,0.4,1.3,0.4,2V71.7L455.9,71.7z M409.2,47.3h36.4V25h-18.2c-0.3,0-1,0.1-2,0.1c-1,0.1-2.2,0.3-3.5,0.7
	c-1.3,0.4-2.7,0.9-4.2,1.7c-1.5,0.8-2.9,1.8-4.1,3.2c-1.2,1.4-2.3,3.1-3.1,5.1c-0.8,2-1.2,4.5-1.2,7.4V47.3L409.2,47.3z M524.8,38.5
	c0,2.4-0.3,4.5-0.9,6.3c-0.6,1.9-1.4,3.5-2.4,4.9c-1,1.4-2.1,2.6-3.4,3.6c-1.3,1-2.7,1.8-4.1,2.5c-1.4,0.6-2.9,1.1-4.3,1.4
	c-1.4,0.3-2.8,0.4-4.1,0.4h-27.5V47.3h27.5c1.3,0,2.5-0.4,3.6-0.8c1.1-0.4,2-1,2.8-1.8c0.8-0.7,1.4-1.6,1.8-2.7
	c0.4-1,0.6-2.2,0.6-3.6v-4.7c-0.1-1.3-0.4-2.5-0.8-3.6c-0.4-1.1-1-2-1.7-2.8c-0.7-0.8-1.6-1.4-2.6-1.8c-1-0.4-2.2-0.7-3.6-0.7h-23.3
	c-1.4,0-2.4,0.4-3.2,1.1c-0.7,0.7-1.1,1.8-1.1,3.1v42.5h-10.3V29.1c0-2.6,0.5-4.9,1.5-6.8c1-1.9,2.2-3.4,3.6-4.5
	c1.5-1.1,3-2,4.7-2.5c1.7-0.5,3.3-0.8,4.7-0.8h23.4c2.3,0,4.4,0.3,6.3,0.9c1.8,0.6,3.5,1.4,4.9,2.4c1.4,1,2.6,2.1,3.6,3.4
	c1,1.3,1.8,2.7,2.5,4.1c0.7,1.4,1.1,2.9,1.4,4.3c0.3,1.4,0.4,2.8,0.4,4.1V38.5L524.8,38.5z M590.5,38.5c0,2.4-0.3,4.5-0.9,6.3
	c-0.6,1.9-1.4,3.5-2.4,4.9c-1,1.4-2.1,2.6-3.4,3.6c-1.3,1-2.7,1.8-4.1,2.5c-1.4,0.6-2.9,1.1-4.3,1.4c-1.4,0.3-2.8,0.4-4.1,0.4h-27.5
	V47.3h27.5c1.3,0,2.5-0.4,3.6-0.8c1.1-0.4,2-1,2.8-1.8c0.8-0.7,1.4-1.6,1.8-2.7c0.4-1,0.6-2.2,0.6-3.6v-4.7
	c-0.1-1.3-0.4-2.5-0.8-3.6c-0.4-1.1-1-2-1.7-2.8c-0.7-0.8-1.6-1.4-2.6-1.8c-1-0.4-2.2-0.7-3.6-0.7H548c-1.4,0-2.4,0.4-3.2,1.1
	c-0.7,0.7-1.1,1.8-1.1,3.1v42.5h-10.3V29.1c0-2.6,0.5-4.9,1.5-6.8c1-1.9,2.2-3.4,3.6-4.5c1.5-1.1,3-2,4.7-2.5
	c1.7-0.5,3.3-0.8,4.7-0.8h23.4c2.3,0,4.4,0.3,6.3,0.9c1.8,0.6,3.5,1.4,4.9,2.4c1.4,1,2.6,2.1,3.6,3.4c1,1.3,1.8,2.7,2.5,4.1
	c0.7,1.4,1.1,2.9,1.4,4.3c0.3,1.4,0.4,2.8,0.4,4.1V38.5z"/>
<g>
	<path opacity="0.7" fill-rule="evenodd" clip-rule="evenodd" fill="#E92E29" d="M5.9,0.6l30.4,28.5l8,7.5l38.4-36
		C83.2,0.1,84,0,84.6,0.3c0.7,0.3,1.1,0.9,1.1,1.6v19.5c0,0.3,0,0.5,0,0.8c1.3-1.2,8.1-7.6,10-9.4c0.5-0.5,1.3-0.6,1.9-0.3
		c0.7,0.3,1.1,0.9,1.1,1.6v69.4c0,0.7-0.4,1.4-1.1,1.6c-0.7,0.3-1.4,0.2-1.9-0.3l-10.1-9.4v0L57.3,48.8L28.9,75.3l-0.1,0.1l-9.9,9.3
		c-0.5,0.5-1.3,0.6-1.9,0.3c-0.7-0.3-1.1-0.9-1.1-1.6v-8V64v-0.6c0-0.2,0.1-0.3,0.2-0.4l-0.1,0.1v0L5.9,72.6
		c-0.5,0.5-1.3,0.6-1.9,0.3c-0.7-0.3-1.1-0.9-1.1-1.7V1.9c0-0.7,0.4-1.4,1.1-1.6C4.6,0,5.3,0.1,5.9,0.6z"/>
	<polygon opacity="0.8" fill-rule="evenodd" clip-rule="evenodd" fill="#D21F25" points="15.9,10 15.9,63.2 44.3,36.6 	"/>
	<polygon opacity="0.8" fill-rule="evenodd" clip-rule="evenodd" fill="#D21F25" points="85.7,22.2 85.6,75.4 57.3,48.8 	"/>
</g>
</svg>
